<svg xmlns="http://www.w3.org/2000/svg" width="144" height="144" viewBox="0 0 144 144">
    <path fill="#FEFEFE" fill-rule="nonzero" d="M72 4C34.447 4 4 34.447 4 72s30.447 68 68 68 68-30.447 68-68S109.553 4 72 4zM32.333 112.466c6.613-19.834 26.447-12.093 29.75-22.837v-7.163c-1.484-.799-5.74-6.284-6.188-10.568-1.173-.102-3.009-1.264-3.553-5.86-.289-2.464.867-3.853 1.564-4.289 0 0-1.745-3.978-1.745-7.928.006-11.741 5.82-21.488 19.839-21.488 7.57 0 9.917 5.367 9.917 5.367 6.766 0 9.916 7.417 9.916 16.116 0 4.335-1.745 7.927-1.745 7.927.703.437 1.859 1.825 1.57 4.29-.544 4.596-2.38 5.757-3.553 5.86-.448 4.283-4.698 9.769-6.188 10.568v7.162c3.303 10.75 23.137 3.01 29.75 22.843 0 0-14.836 16.2-39.667 16.2-24.973 0-39.667-16.2-39.667-16.2z"/>
</svg>
