<svg xmlns="http://www.w3.org/2000/svg" width="55" height="55" viewBox="0 0 55 55">
    <path fill="#FEFEFE" fill-rule="nonzero" d="M4.6 4C3.165 4 2 5.12 2 6.5v25C2 32.88 3.165 34 4.6 34h46.8c1.435 0 2.6-1.12 2.6-2.5v-25C54 5.12 52.835 4 51.4 4H4.6zm5.794 6h37.212c.396 1.065 1.276 1.902 2.394 2.28v15.44c-1.118.378-1.998 1.215-2.394 2.28H10.394C9.998 28.935 9.118 28.098 8 27.72V12.28c1.118-.378 1.998-1.215 2.394-2.28zM29 11a8 8 0 1 0 0 16 8 8 0 0 0 0-16zm-13 6a3 3 0 1 0 0 6 3 3 0 1 0 0-6zm26 0a3 3 0 1 0 0 6 3 3 0 1 0 0-6zM8 40l39.626 9.92c1.392.347 2.808-.458 3.17-1.792L53 40h-5.374l-.614 2.25a3.92 3.92 0 0 0-2.88 1.626L28.642 40H8z"/>
</svg>
