<svg xmlns="http://www.w3.org/2000/svg" width="29" height="29" viewBox="0 0 29 29">
    <g fill="none" fill-rule="evenodd" transform="translate(1 1)">
        <path fill="#697589" fill-rule="nonzero" d="M18.101 6H8.9A2.902 2.902 0 0 0 6 8.899V18.1C6 19.7 7.3 21 8.899 21H18.1C19.7 21 21 19.7 21 18.101V8.898C21 7.3 19.7 6 18.101 6zm.832 1.729l.331-.002v2.543l-2.534.008-.009-2.542 2.212-.007zm-7.574 4.231a2.64 2.64 0 0 1 2.141-1.1c.881 0 1.66.436 2.14 1.1.313.434.5.965.5 1.54a2.644 2.644 0 0 1-2.64 2.64 2.643 2.643 0 0 1-2.64-2.64c0-.575.186-1.106.499-1.54zm8.18 6.141c0 .793-.645 1.437-1.438 1.437H8.9a1.439 1.439 0 0 1-1.438-1.437v-6.14h2.24a4.08 4.08 0 0 0-.303 1.539 4.107 4.107 0 0 0 4.102 4.102 4.107 4.107 0 0 0 4.101-4.102 4.08 4.08 0 0 0-.302-1.54h2.24v6.141z"/>
        <circle cx="13.5" cy="13.5" r="13.5" stroke="#697589"/>
    </g>
</svg>
