<svg xmlns="http://www.w3.org/2000/svg" xmlns:xlink="http://www.w3.org/1999/xlink" width="136" height="136" viewBox="0 0 136 136">
    <defs>
        <path id="a" d="M68 136c-37.494 0-68-30.506-68-68S30.506 0 68 0s68 30.506 68 68-30.506 68-68 68zm.042-55c-12.54 0-23.832 6.244-29.459 16.256-1.213 2.18-.478 4.951 1.692 6.17 2.17 1.22 4.928.48 6.142-1.7 4.009-7.093 12.504-11.674 21.625-11.674 9.195 0 17.47 4.396 21.552 11.49 1.25 2.18 4.009 2.919 6.142 1.663 2.17-1.257 2.906-4.028 1.655-6.17C91.691 87.133 80.436 81 68.042 81zM46 60.89c2.12 0 4.16-.84 5.64-2.32A8.025 8.025 0 0 0 54 52.89c0-2.12-.84-4.16-2.36-5.64-2.96-3-8.32-3-11.28 0A7.864 7.864 0 0 0 38 52.89c0 2.12.84 4.16 2.36 5.68A7.992 7.992 0 0 0 46 60.89zm42 .005c2.08 0 4.16-.84 5.68-2.36 1.48-1.48 2.32-3.56 2.32-5.64 0-2.08-.84-4.16-2.36-5.68-2.96-2.96-8.32-2.96-11.28.04a7.864 7.864 0 0 0-2.36 5.64c0 2.12.84 4.16 2.36 5.68 1.48 1.48 3.56 2.32 5.64 2.32z"/>
    </defs>
    <g fill="none" fill-rule="evenodd">
        <mask id="b" fill="#fff">
            <use xlink:href="#a"/>
        </mask>
        <use fill="#000" fill-opacity="0" xlink:href="#a"/>
        <path fill="#000" d="M-4-4h144v144H-4z" mask="url(#b)" opacity=".34"/>
    </g>
</svg>
