<svg xmlns="http://www.w3.org/2000/svg" width="29" height="29" viewBox="0 0 29 29">
    <g fill="none" fill-rule="evenodd" transform="translate(1 1)">
        <path fill="#697589" fill-rule="nonzero" d="M20.93 19.825l-1.162-3.103a6.836 6.836 0 0 0 .562-2.723C20.33 10.134 17.123 7 13.165 7 9.208 7 6 10.134 6 14s3.208 7 7.165 7a7.24 7.24 0 0 0 4.483-1.543l2.62 1.002c.578.222.877-.064.663-.634zM9.215 14.538a1.075 1.075 0 0 1-1.071-1.076c0-.595.48-1.077 1.071-1.077.592 0 1.072.482 1.072 1.077 0 .594-.48 1.076-1.072 1.076zm3.215 0a1.075 1.075 0 0 1-1.072-1.076c0-.595.48-1.077 1.072-1.077.591 0 1.071.482 1.071 1.077 0 .594-.48 1.076-1.071 1.076zm4.285 0a1.075 1.075 0 0 1-1.071-1.076c0-.595.48-1.077 1.071-1.077.592 0 1.072.482 1.072 1.077 0 .594-.48 1.076-1.072 1.076z"/>
        <circle cx="13.5" cy="13.5" r="13.5" stroke="#697589"/>
    </g>
</svg>
