<svg xmlns="http://www.w3.org/2000/svg" xmlns:xlink="http://www.w3.org/1999/xlink" width="139" height="136" viewBox="0 0 139 136">
    <defs>
        <path id="a" d="M0 97.373v23.792C0 129.331 6.636 136 14.826 136h108.555c8.162 0 14.827-6.64 14.827-14.835V97.373c0-8.166-6.637-14.835-14.827-14.835H93.447c-3.05 0-5.592 2.317-5.902 5.369-.96 9.494-8.896 16.643-18.441 16.643-9.545 0-17.48-7.149-18.441-16.643-.31-3.052-2.852-5.369-5.902-5.369H14.826C6.665 82.538 0 89.178 0 97.373zm69.104 14.1c12.82 0 23.524-9.41 25.218-22.012h29.06c4.348 0 7.907 3.532 7.907 7.912v23.792c0 4.352-3.53 7.912-7.908 7.912H14.826c-4.349 0-7.907-3.532-7.907-7.912V97.373c0-4.352 3.53-7.912 7.907-7.912h29.06c1.694 12.603 12.397 22.012 25.218 22.012zM69.104 0c1.92 0 3.445 1.554 3.473 3.447v59.311l16.747-16.756a3.442 3.442 0 0 1 4.885 0 3.447 3.447 0 0 1 0 4.889L71.561 73.552a3.439 3.439 0 0 1-2.457 1.018c-.904 0-1.78-.34-2.457-1.018L43.998 50.891a3.447 3.447 0 0 1 0-4.889 3.442 3.442 0 0 1 4.886 0L65.63 62.758V3.476A3.472 3.472 0 0 1 69.104 0z"/>
    </defs>
    <g fill="none" fill-rule="evenodd">
        <mask id="b" fill="#fff">
            <use xlink:href="#a"/>
        </mask>
        <path fill="#000" d="M-26.586-26.395h188.639v188.639H-26.586z" mask="url(#b)" opacity=".34"/>
    </g>
</svg>
