<svg xmlns="http://www.w3.org/2000/svg" xmlns:xlink="http://www.w3.org/1999/xlink" width="50" height="52" viewBox="0 0 50 52">
    <defs>
        <path id="a" d="M0 .033h50V52H0z"/>
    </defs>
    <g fill="none" fill-rule="evenodd">
        <g>
            <mask id="b" fill="#fff">
                <use xlink:href="#a"/>
            </mask>
            <path fill="#FFF" d="M43.062 48.153l-4.439-2.972c-.44-.3-1.024-.3-1.464 0L31.42 49.04l-5.76-3.859c-.44-.3-1.024-.3-1.465 0l-5.738 3.848-5.76-3.848c-.44-.3-1.024-.3-1.465 0l-4.416 2.96V2.684h36.234l.01 45.47zM48.678.033H1.322a1.33 1.33 0 0 0 0 2.661h2.852v47.942c0 .488.264.943.694 1.176.43.232.947.21 1.354-.067l5.738-3.847 5.76 3.858c.44.3 1.024.3 1.465 0l5.738-3.847 5.76 3.858c.44.3 1.024.3 1.465 0l5.737-3.847 5.76 3.858c.22.144.474.222.727.222.21 0 .43-.055.628-.155.43-.233.694-.688.694-1.175l-.022-47.942h3.006A1.33 1.33 0 0 0 50 1.397c0-.732-.595-1.364-1.322-1.364z" mask="url(#b)"/>
        </g>
        <path fill="#FFF" d="M13.39 21.125h13.543c.711 0 1.293-.548 1.293-1.219 0-.67-.582-1.218-1.293-1.218H13.39c-.711 0-1.293.548-1.293 1.218 0 .67.57 1.219 1.293 1.219M12.6 26h10.284c.72 0 1.31-.548 1.31-1.219 0-.67-.59-1.218-1.31-1.218H12.6c-.72 0-1.31.548-1.31 1.218 0 .67.579 1.219 1.31 1.219M33.656 21.125h3.656c.769 0 1.398-.548 1.398-1.219 0-.67-.63-1.218-1.398-1.218h-3.656c-.77 0-1.398.548-1.398 1.218 0 .67.617 1.219 1.398 1.219M33.656 26h3.656c.769 0 1.398-.548 1.398-1.219 0-.67-.63-1.218-1.398-1.218h-3.656c-.77 0-1.398.548-1.398 1.218 0 .67.617 1.219 1.398 1.219M13.39 10.563h13.543c.711 0 1.293-.549 1.293-1.22 0-.67-.582-1.218-1.293-1.218H13.39c-.711 0-1.293.548-1.293 1.219 0 .67.57 1.219 1.293 1.219M12.6 15.438h10.284c.72 0 1.31-.549 1.31-1.22 0-.67-.59-1.218-1.31-1.218H12.6c-.72 0-1.31.548-1.31 1.219 0 .67.579 1.219 1.31 1.219M33.656 10.563h3.656c.769 0 1.398-.549 1.398-1.22 0-.67-.63-1.218-1.398-1.218h-3.656c-.77 0-1.398.548-1.398 1.219 0 .67.617 1.219 1.398 1.219M33.656 15.438h3.656c.769 0 1.398-.549 1.398-1.22 0-.67-.63-1.218-1.398-1.218h-3.656c-.77 0-1.398.548-1.398 1.219 0 .67.617 1.219 1.398 1.219M13.39 31.688h13.543c.711 0 1.293-.549 1.293-1.22 0-.67-.582-1.218-1.293-1.218H13.39c-.711 0-1.293.548-1.293 1.219 0 .67.57 1.218 1.293 1.218M12.6 36.563h10.284c.72 0 1.31-.549 1.31-1.22 0-.67-.59-1.218-1.31-1.218H12.6c-.72 0-1.31.548-1.31 1.219 0 .67.579 1.218 1.31 1.218M33.656 31.688h3.656c.769 0 1.398-.549 1.398-1.22 0-.67-.63-1.218-1.398-1.218h-3.656c-.77 0-1.398.548-1.398 1.219 0 .67.617 1.218 1.398 1.218M33.656 36.563h3.656c.769 0 1.398-.549 1.398-1.22 0-.67-.63-1.218-1.398-1.218h-3.656c-.77 0-1.398.548-1.398 1.219 0 .67.617 1.218 1.398 1.218"/>
    </g>
</svg>
