<?xml version="1.0" encoding="utf-8"?><!DOCTYPE svg PUBLIC "-//W3C//DTD SVG 1.1//EN" "http://www.w3.org/Graphics/SVG/1.1/DTD/svg11.dtd"><svg version="1.1" xmlns="http://www.w3.org/2000/svg" xmlns:xlink="http://www.w3.org/1999/xlink" x="0px" y="0px" viewBox="0 0 100 110.8675" width="40" height="40" enable-background="new 0 0 100 88.694" xml:space="preserve"><path fill="#010101" d="M31.521,69.051c-5.373,0-9.746,4.438-9.746,9.896c0,5.372,4.373,9.748,9.746,9.748
	c5.548,0,9.895-4.286,9.895-9.748C41.417,73.396,37.07,69.051,31.521,69.051z"/><path fill="#010101" d="M83.673,69.051c-5.456,0-9.885,4.438-9.885,9.896c0,5.372,4.429,9.748,9.885,9.748
	c5.383,0,9.759-4.376,9.759-9.748C93.432,73.396,89.146,69.051,83.673,69.051z"/><path fill="#010101" d="M99.108,14.544c-0.766-0.958-1.92-1.511-3.147-1.511H21.957L18.106,2.631C17.521,1.052,16.015,0,14.329,0
	H4.029C1.805,0,0,1.805,0,4.03c0,2.222,1.805,4.029,4.029,4.029h7.495l19.169,51.768c0.593,1.595,2.111,2.629,3.777,2.629
	c0.16,0,0.323-0.011,0.483-0.026l53.735-6.448c1.7-0.204,3.085-1.453,3.463-3.132l7.755-34.917
	C100.168,16.745,99.875,15.493,99.108,14.544z M88.259,33.18H72.162V21.092h18.782L88.259,33.18z M52.013,33.18V21.092h16.12V33.18
	H52.013z M68.133,37.209v13.122l-16.12,1.931V37.204h16.12V37.209z M47.983,21.092V33.18H29.415L24.94,21.092H47.983z
	 M30.908,37.209h17.075v15.546l-10.837,1.296L30.908,37.209z M72.162,49.849v-12.64h15.204l-2.471,11.107L72.162,49.849z"/></svg>