<svg xmlns="http://www.w3.org/2000/svg" xmlns:xlink="http://www.w3.org/1999/xlink" width="136" height="129" viewBox="0 0 136 129">
    <defs>
        <path id="a" d="M3.426 57.796A3.42 3.42 0 0 0 0 61.216v63.857a3.42 3.42 0 0 0 3.426 3.42H34.71a3.42 3.42 0 0 0 3.427-3.42V61.216a3.42 3.42 0 0 0-3.427-3.42H3.426zm27.858 63.857H6.825V64.607h24.459v57.046zM48.946 3.42c0-1.89 1.532-3.391 3.398-3.419h31.312a3.42 3.42 0 0 1 3.426 3.42v121.653a3.42 3.42 0 0 1-3.426 3.42H52.372a3.42 3.42 0 0 1-3.426-3.42V3.419zm6.825 3.42V121.68h24.458V6.84H55.771zm76.803 121.625v.028H101.29a3.42 3.42 0 0 1-3.427-3.42V43.119a3.42 3.42 0 0 1 3.427-3.42h31.284a3.42 3.42 0 0 1 3.426 3.42v81.927a3.42 3.42 0 0 1-3.426 3.42zm-27.858-81.927v75.144h24.459V46.537h-24.459z"/>
    </defs>
    <g fill="none" fill-rule="evenodd">
        <mask id="b" fill="#fff">
            <use xlink:href="#a"/>
        </mask>
        <path fill="#000" fill-opacity=".54" d="M-4-8h144v144H-4z" mask="url(#b)" opacity=".87"/>
    </g>
</svg>
