<svg xmlns="http://www.w3.org/2000/svg" xmlns:xlink="http://www.w3.org/1999/xlink" width="55" height="55" viewBox="0 0 55 55">
    <defs>
        <path id="a" d="M0 55h55V0H0z"/>
    </defs>
    <g fill="none" fill-rule="evenodd">
        <path fill="#FFF" d="M17.98 42.805a1.04 1.04 0 0 0-.149-.36.96.96 0 0 0-.276-.276.98.98 0 0 0-.36-.15.988.988 0 0 0-.75.15.957.957 0 0 0-.276.276.95.95 0 0 0-.149.36.985.985 0 0 0 .149.75.957.957 0 0 0 .276.276 1.008 1.008 0 0 0 .75.149.987.987 0 0 0 .728-.598 1.009 1.009 0 0 0 .057-.577"/>
        <path fill="#FFF" d="M46.054 46.592l-16.62 5.727a1.366 1.366 0 0 0-.093.037c-2.315 1.024-4.515.41-5.378.088-3.259-1.412-4.998-2.377-6.27-3.083-1.766-.98-2.618-1.453-5.022-1.644v-8.37c1.023-1.616 3.008-3.268 5.148-3.268 3.67 0 5.225 2.297 5.286 2.39.132.206.335.362.573.44l8.582 2.803c1.37.495 2.095 1.625 1.762 2.751-.154.52-.509.952-1 1.216a2.163 2.163 0 0 1-1.585.182l-9.675-2.95c-.568-.174-1.175.13-1.355.676-.18.547.134 1.132.703 1.305l9.691 2.956.031.009a4.37 4.37 0 0 0 3.241-.363 4.107 4.107 0 0 0 2.092-2.715l8.108-2.161c1.17-.385 2.708-.524 3.392.993.709 1.781-1.132 2.76-1.61 2.98zM8.58 49.06h1.931v-9.088H8.58v9.088zm-6.42 1.936h4.26V39.972H2.16v11.024zm47.511-8.155a1.111 1.111 0 0 0-.013-.031c-.994-2.239-3.325-3.066-6.083-2.16l-7.523 2.003c-.435-1.268-1.52-2.347-3.054-2.894l-.029-.01-8.269-2.702C24.012 36.191 21.856 34 17.819 34c-2.821 0-5.317 1.863-6.744 3.893H1.08c-.597 0-1.08.465-1.08 1.04v13.103c0 .574.483 1.04 1.08 1.04H7.5c.597 0 1.08-.466 1.08-1.04v-.898h3.01c.597 0 1.08-.465 1.08-1.039V49.8c1.756.147 2.333.468 3.945 1.362 1.24.689 3.113 1.728 6.487 3.188l.048.02c.647.245 1.913.63 3.474.63a8.895 8.895 0 0 0 3.577-.737l16.629-5.73c.03-.01.058-.022.087-.035 1.59-.704 3.957-2.687 2.754-5.657zM38.981 13.805a.972.972 0 0 0-.15-.36.951.951 0 0 0-.276-.276 1.017 1.017 0 0 0-.359-.15.99.99 0 0 0-.75.15.958.958 0 0 0-.277.276A1.015 1.015 0 0 0 37 14a.986.986 0 0 0 .077.382.988.988 0 0 0 .541.541 1.014 1.014 0 0 0 .578.057 1.062 1.062 0 0 0 .359-.149.958.958 0 0 0 .276-.276.925.925 0 0 0 .092-.173A.942.942 0 0 0 39 14a.977.977 0 0 0-.019-.195"/>
        <mask id="b" fill="#fff">
            <use xlink:href="#a"/>
        </mask>
        <path fill="#FFF" d="M48.59 17.42h4.254V5.867H48.59V17.42zm-4.085 0h1.928V7.896h-1.928v9.524zm-2.156.655c-1.022 1.692-3.004 3.425-5.14 3.425-.4 0-.775-.03-1.125-.08l-.004-.001c-2.329-.342-3.581-1.679-3.994-2.208-.022-.033-.116-.156-.13-.177a1.077 1.077 0 0 0-.594-.5l-8.572-2.938c-1.368-.519-2.091-1.702-1.76-2.882l.001-.003v-.002c.155-.544.509-.995.998-1.27a2.068 2.068 0 0 1 1.583-.191l9.66 3.092a1.076 1.076 0 0 0 1.353-.71 1.091 1.091 0 0 0-.702-1.367L26.24 9.804l-.067-.068-.002-.002-3.977-4.017 3.419-1.237.037-.014.011-.005c.015-.006.03-.012.043-.019 2.312-1.073 4.508-.43 5.37-.092 3.254 1.479 4.99 2.49 6.26 3.23 1.764 1.028 2.614 1.523 5.015 1.723v8.772zm-9.725 6.22a4.799 4.799 0 0 1-.689-2.266 8.357 8.357 0 0 0 1.901 1.04l-1.212 1.225zm-10.57-6.652l.028.01 2.156.74a4.024 4.024 0 0 1-1.074 1.972 3.966 3.966 0 0 1-5.642 0 4.064 4.064 0 0 1 0-5.699c.375-.38.818-.676 1.3-.877.2 1.674 1.392 3.165 3.231 3.854zm6.554 10.708a6.795 6.795 0 0 0-8.02 0L9.618 17.269a6.904 6.904 0 0 0 1.296-4.052 6.903 6.903 0 0 0-1.296-4.051l2.46-2.485a6.741 6.741 0 0 0 4.01 1.31c1.462 0 2.853-.46 4.01-1.31l2.333 2.356a4.226 4.226 0 0 0-1.452.5 4.251 4.251 0 0 0-1.756 1.874 6.124 6.124 0 0 0-3.226 1.715c-2.396 2.42-2.396 6.359 0 8.78a6.095 6.095 0 0 0 4.346 1.815 6.095 6.095 0 0 0 4.346-1.815 6.2 6.2 0 0 0 1.599-2.81l3.64 1.248a7.01 7.01 0 0 0 1.142 5.52l-2.462 2.487zm-4.01 4.05l-2.457-2.481a4.654 4.654 0 0 1 4.914 0l-2.457 2.482zM8.064 15.7l-2.457-2.483 2.457-2.482c.452.738.694 1.591.694 2.482 0 .892-.242 1.745-.694 2.483zm8.024-13.07l2.457 2.482a4.62 4.62 0 0 1-2.457.7 4.618 4.618 0 0 1-2.457-.7l2.457-2.483zm37.834 1.059h-6.41c-.596 0-1.079.487-1.079 1.089v.94h-3.006c-.595 0-1.078.488-1.078 1.09v.313c-1.752-.155-2.329-.49-3.938-1.428-1.238-.721-3.109-1.81-6.477-3.34a.912.912 0 0 0-.048-.021c-1.096-.436-3.97-1.293-7.04.112l-4.338 1.57L16.85.318a1.07 1.07 0 0 0-1.525 0L3.32 12.447a1.088 1.088 0 0 0 0 1.54l20.516 20.725c.328.332 1.097.432 1.524 0L36.321 23.64c.285.025.581.038.888.038 2.816 0 5.308-1.952 6.733-4.08h9.98c.595 0 1.078-.487 1.078-1.089V4.778c0-.602-.483-1.09-1.078-1.09z" mask="url(#b)"/>
    </g>
</svg>
