<svg xmlns="http://www.w3.org/2000/svg" xmlns:xlink="http://www.w3.org/1999/xlink" width="126" height="122" viewBox="0 0 126 122">
    <defs>
        <path id="a" d="M107.988-2c-1.762 0-3.523.469-5.105 1.37-.108.072-.216.109-.288.18L66.611 24.506H37.672c-14.523 0-26.35 11.865-26.35 26.434v20.05c0 14.57 11.827 26.433 26.35 26.433H68.05l34.475 24.955c.107.072.251.18.359.253a10.125 10.125 0 0 0 5.105 1.37c2.66 0 5.176-1.01 7.082-2.849 2.013-1.947 3.127-4.544 3.127-7.356V8.242C118.197 2.58 113.632-2 107.987-2zm1.402 115.758c0 .397-.144.722-.396 1.01a1.453 1.453 0 0 1-.97.397c-.18 0-.36-.036-.54-.108l-35.373-25.64a4.427 4.427 0 0 0-2.588-.83h-31.85c-9.67 0-17.544-7.897-17.544-17.598V50.94c0-9.7 7.873-17.598 17.543-17.598h30.305c.899 0 1.761-.289 2.516-.794l36.92-25.604c.18-.108.395-.144.575-.144.575 0 1.402.433 1.402 1.406v105.553zm8.688-46.408c3.807 0 6.893-3.105 6.893-6.935 0-3.83-3.086-6.935-6.893-6.935-3.806 0-6.893 3.105-6.893 6.935 0 3.83 3.087 6.935 6.893 6.935zm-108.185 0c3.807 0 6.893-3.105 6.893-6.935 0-3.83-3.086-6.935-6.893-6.935S3 56.585 3 60.415c0 3.83 3.086 6.935 6.893 6.935z"/>
    </defs>
    <g fill="none" fill-rule="evenodd" transform="translate(-1)">
        <mask id="b" fill="#fff">
            <use xlink:href="#a"/>
        </mask>
        <path fill="#000" fill-opacity=".54" d="M-13.638-16.276h154.205v154.205H-13.638z" mask="url(#b)" opacity=".87"/>
    </g>
</svg>
