<svg xmlns="http://www.w3.org/2000/svg" xmlns:xlink="http://www.w3.org/1999/xlink" width="126" height="126" viewBox="0 0 126 126">
    <defs>
        <path id="a" d="M78.756 125.99h23.625a3.936 3.936 0 0 0 3.937-3.937V66.928h15.75a3.95 3.95 0 0 0 3.623-2.422 3.939 3.939 0 0 0-.847-4.292L65.782 1.152a3.945 3.945 0 0 0-5.572 0L1.148 60.214A3.939 3.939 0 0 0 .3 64.506a3.956 3.956 0 0 0 3.642 2.422h15.75v55.125a3.924 3.924 0 0 0 3.938 3.937h23.625a3.936 3.936 0 0 0 3.937-3.937V94.49h23.625v27.563a3.924 3.924 0 0 0 3.938 3.937zm-31.5-39.375a3.936 3.936 0 0 0-3.938 3.938v27.562h-15.75V62.99a3.95 3.95 0 0 0-3.937-3.937H13.433L63.006 9.499l49.553 49.554h-10.178a3.936 3.936 0 0 0-3.938 3.937v55.125h-15.75V90.553a3.95 3.95 0 0 0-3.937-3.938h-31.5z"/>
    </defs>
    <g fill="none" fill-rule="evenodd">
        <mask id="b" fill="#fff">
            <use xlink:href="#a"/>
        </mask>
        <path fill="#000" fill-opacity=".54" d="M-125.185-122.841h371.383v371.383h-371.383z" mask="url(#b)" opacity=".87"/>
    </g>
</svg>
