<svg xmlns="http://www.w3.org/2000/svg" width="19" height="20" viewBox="0 0 19 20">
    <g fill="#009FF6" fill-rule="nonzero">
        <path d="M16.218 2.929C14.363.976 11.93 0 9.5 0S4.637.976 2.782 2.929c-3.71 3.905-3.71 10.237 0 14.142C4.637 19.024 7.07 20 9.5 20s4.863-.976 6.718-2.93c3.71-3.904 3.71-10.236 0-14.141zm-1.05 13.037c-1.514 1.594-3.527 2.471-5.668 2.471s-4.154-.877-5.668-2.47c-3.125-3.29-3.125-8.644 0-11.933C5.346 2.44 7.359 1.563 9.5 1.563s4.154.877 5.668 2.47c1.514 1.594 2.348 3.713 2.348 5.967 0 2.254-.834 4.372-2.348 5.966z"/>
        <path d="M9.5 5a1.5 1.5 0 1 0 0 3 1.5 1.5 0 0 0 0-3zM8 16h3V9H8z"/>
    </g>
</svg>
