<svg xmlns="http://www.w3.org/2000/svg" width="34" height="22" viewBox="0 0 34 22">
    <g fill="none" fill-rule="nonzero">
        <path fill="#FFF" d="M0 0h34v22H0z"/>
        <path fill="#FCB315" d="M0 19h32v2H0z"/>
        <path fill="#0D357F" d="M0 1h32v2H0zM13.873 8.141l-1.737 7.738h-2.1l1.737-7.738h2.1zm8.84 4.996l1.105-2.905.636 2.905h-1.742zm2.344 2.742H27L25.303 8.14H23.51a.958.958 0 0 0-.895.568l-3.153 7.17h2.207l.438-1.156h2.695l.254 1.156zm-5.484-2.527c.009-2.041-2.963-2.155-2.943-3.067.006-.277.284-.572.89-.648.302-.037 1.132-.067 2.073.346l.368-1.641A5.915 5.915 0 0 0 17.996 8c-2.077 0-3.538 1.051-3.55 2.557-.013 1.114 1.044 1.735 1.838 2.106.82.38 1.094.623 1.09.962-.005.519-.653.748-1.256.757-1.057.016-1.67-.272-2.158-.489l-.381 1.696c.491.215 1.397.401 2.335.411 2.208 0 3.652-1.039 3.659-2.648zm-8.702-5.21l-3.404 7.737h-2.22L3.57 9.704c-.101-.38-.19-.52-.498-.68-.506-.261-1.34-.506-2.073-.658l.05-.225h3.575c.455 0 .865.29.969.789l.885 4.477 2.185-5.266h2.207z"/>
    </g>
</svg>
