<svg xmlns="http://www.w3.org/2000/svg" width="20" height="20" viewBox="0 0 20 20">
    <path fill="#FEFEFE" fill-rule="nonzero" d="M14.383 0c-.125 0-.23.102-.245.238l-.114 1.071a3.803 3.803 0 0 0-1.267.796l-.913-.428a.235.235 0 0 0-.31.112l-.912 1.716a.283.283 0 0 0 .066.35l.787.635c-.046.26-.076.529-.076.804 0 .276.03.544.076.805l-.787.634c-.1.08-.129.231-.066.35l.912 1.716c.063.119.195.168.31.114l.913-.43c.37.348.795.618 1.267.796l.114 1.071c.014.136.12.238.245.238h1.822c.126 0 .23-.102.245-.238l.114-1.07a3.804 3.804 0 0 0 1.269-.797l.91.426a.235.235 0 0 0 .31-.112l.914-1.716a.283.283 0 0 0-.067-.35l-.785-.634c.046-.26.074-.528.074-.803s-.03-.544-.076-.804l.787-.635c.1-.08.129-.231.067-.35l-.913-1.716c-.062-.119-.195-.168-.31-.114l-.913.43a3.803 3.803 0 0 0-1.267-.796L16.45.238C16.436.102 16.33 0 16.205 0h-1.822zm.323 3.53a1.765 1.765 0 1 1-.001 3.53 1.765 1.765 0 0 1 0-3.53zM4.985 7.058a.247.247 0 0 0-.242.223l-.167 1.48a4.74 4.74 0 0 0-2.034 1.205l-1.304-.583a.236.236 0 0 0-.306.105l-.9 1.614a.258.258 0 0 0 .066.329l1.149.882a5.111 5.111 0 0 0-.161 1.215c0 .422.066.825.16 1.216l-1.148.884a.259.259 0 0 0-.065.329l.9 1.614a.236.236 0 0 0 .305.105l1.304-.586a4.74 4.74 0 0 0 2.034 1.206l.167 1.48a.247.247 0 0 0 .242.223H6.78a.247.247 0 0 0 .242-.224l.166-1.48a4.74 4.74 0 0 0 2.035-1.205l1.304.584c.113.05.244.006.306-.105l.899-1.614a.258.258 0 0 0-.066-.329l-1.148-.882c.095-.391.16-.794.16-1.216 0-.421-.065-.824-.16-1.215l1.148-.884a.259.259 0 0 0 .066-.329l-.9-1.614a.236.236 0 0 0-.305-.105l-1.304.585a4.74 4.74 0 0 0-2.035-1.205l-.166-1.48a.247.247 0 0 0-.242-.223H4.985zm1.486 4.706a1.764 1.764 0 1 1 0 3.528 1.764 1.764 0 0 1 0-3.528z"/>
</svg>
