<svg xmlns="http://www.w3.org/2000/svg" xmlns:xlink="http://www.w3.org/1999/xlink" width="58" height="38" viewBox="0 0 58 38">
    <defs>
        <path id="a" d="M41.394 15.36l7.837-11.535 5.72 15.912-13.557-4.377zM25.605 32.384l7.35-12.116 3.458.916c.107.028.216.042.321.042.417 0 .814-.207 1.06-.568l2.046-3.013 13.241 4.276-27.476 10.463zm-2.8-.407l-5.718-15.91 13.243 3.506-7.525 12.404zM46.16 3.705l-9.971 14.672-16.847-4.46L46.16 3.705zM57.84 20.11c.494 1.376-.191 2.91-1.527 3.418l-32.145 12.24a2.513 2.513 0 0 1-1.977-.078 2.614 2.614 0 0 1-1.344-1.493l-6.592-18.342a2.715 2.715 0 0 1 .076-2.034 2.598 2.598 0 0 1 1.451-1.383L47.927.196a2.5 2.5 0 0 1 1.976.078 2.613 2.613 0 0 1 1.344 1.494l6.592 18.341zM14.923 34.77a1.169 1.169 0 0 1-.717 1.515l-4.572 1.643c-.14.05-.281.073-.421.073-.494 0-.957-.294-1.138-.77a1.169 1.169 0 0 1 .717-1.514l4.572-1.643c.628-.225 1.327.086 1.56.697zm-6.01-12.856a1.401 1.401 0 0 1-.82 1.797l-3.226 1.203a1.388 1.388 0 0 1-1.782-.826 1.401 1.401 0 0 1 .82-1.797l3.226-1.203a1.384 1.384 0 0 1 1.781.826zM4.915 31.99c.257.785-.097 1.656-.792 1.947l-2.318.968c-.153.064-.31.095-.465.095-.545 0-1.057-.378-1.257-.99-.257-.785.097-1.656.792-1.947l2.318-.969c.694-.29 1.465.11 1.722.896z"/>
    </defs>
    <g fill="none" fill-rule="evenodd">
        <mask id="b" fill="#fff">
            <use xlink:href="#a"/>
        </mask>
        <path fill="#FFF" d="M-2-2h64v43H-2z" mask="url(#b)"/>
    </g>
</svg>
