<svg xmlns="http://www.w3.org/2000/svg" width="21" height="19" viewBox="0 0 21 19">
    <path fill="#067BBA" fill-rule="nonzero" d="M1.615 0c-.105 0-.21.01-.312.03l-.025.007A1.59 1.59 0 0 0 0 1.583v9.496c0 .103.01.205.032.306l.006.025c.159.729.816 1.25 1.577 1.252h17.77c.105 0 .21-.011.312-.031l.025-.007A1.59 1.59 0 0 0 21 11.08V1.583c0-.103-.01-.206-.032-.306-.001-.009-.004-.017-.006-.025A1.608 1.608 0 0 0 19.385 0H1.615zm1.616 1.583h14.538c0 .874.723 1.582 1.616 1.582v6.331c-.893 0-1.616.709-1.616 1.583H3.231c0-.874-.723-1.583-1.616-1.583v-6.33c.893 0 1.616-.71 1.616-1.583zM10.5 3.165c-1.784 0-3.23 1.595-3.23 3.561a3.68 3.68 0 0 0 1.222 2.77h4.016a3.68 3.68 0 0 0 1.223-2.77c0-1.966-1.447-3.56-3.231-3.56zM4.038 5.54a.8.8 0 0 0-.807.792.8.8 0 0 0 .807.791.8.8 0 0 0 .808-.791.8.8 0 0 0-.808-.792zm12.924 0a.8.8 0 0 0-.808.792.8.8 0 0 0 .808.791.8.8 0 0 0 .807-.791.8.8 0 0 0-.807-.792zm2.41 8.694a.825.825 0 0 0-.117.011h-.678v1.582c-.677 0-1.256.41-1.496.989a37.442 37.442 0 0 0-2.987-.959c-2.934-.807-7.146-1.612-12.479-1.612a.811.811 0 0 0-.709.393.778.778 0 0 0 0 .797.811.811 0 0 0 .71.393c5.167 0 9.225.778 12.04 1.553a37.4 37.4 0 0 1 3.279 1.065c.387.146.694.267.929.357.117.045.215.082.31.113.082.027.139.062.337.071.022.002.043.014.066.014a1.6 1.6 0 0 0 1.607-1.51.782.782 0 0 0 .008-.111v-3.135h-.683a.825.825 0 0 0-.137-.01z"/>
</svg>
