<svg xmlns="http://www.w3.org/2000/svg" width="29" height="29" viewBox="0 0 29 29">
    <g fill="none" fill-rule="evenodd" transform="translate(1 1)">
        <path fill="#697589" fill-rule="nonzero" d="M11.09 10.743c0 .365.112.656.335.872.223.217.52.325.892.325.386 0 .689-.105.909-.315.22-.209.33-.498.33-.866V8.537c0-.328-.112-.596-.337-.804-.224-.208-.512-.312-.863-.312-.387 0-.694.099-.923.296-.228.198-.343.463-.343.796v2.23zm.874-2.262c0-.094.033-.17.098-.228a.367.367 0 0 1 .252-.087.41.41 0 0 1 .272.087.283.283 0 0 1 .104.228v2.342a.363.363 0 0 1-.101.273.377.377 0 0 1-.275.098c-.112 0-.198-.032-.259-.096-.06-.065-.09-.156-.09-.275V8.481zm-2.9 3.35h.956v-2.42L11.134 6h-.972L9.57 8.33h-.06L8.89 6h-.964l1.138 3.52v2.311zm5.807.062c.159 0 .323-.046.492-.137.17-.091.332-.225.49-.4v.475h.848V7.53h-.849v3.265a1.16 1.16 0 0 1-.262.231.476.476 0 0 1-.237.09c-.08 0-.137-.022-.173-.068-.036-.045-.053-.119-.053-.221V7.53h-.85v3.595c0 .256.05.448.15.576.099.128.247.192.444.192zm6.036 3.201c0-1.038-.906-1.881-2.022-1.881-1.593-.063-3.223-.09-4.885-.088-1.662-.003-3.292.025-4.885.088-1.116 0-2.021.843-2.021 1.881A29.286 29.286 0 0 0 7 17.563c-.002.822.027 1.645.094 2.468 0 1.038.905 1.881 2.021 1.881 1.593.063 3.223.09 4.885.088 1.662.003 3.292-.025 4.885-.088 1.116 0 2.022-.843 2.022-1.881.066-.823.095-1.646.093-2.468a29.413 29.413 0 0 0-.093-2.469zm-10.876 5.3h-.956V15.41h-.99v-.847h2.936v.847h-.99v4.984zm3.402 0h-.849v-.475a1.822 1.822 0 0 1-.489.4c-.169.092-.333.137-.493.137-.196 0-.344-.064-.443-.192-.1-.128-.15-.32-.15-.576v-3.595h.85v3.297c0 .102.017.176.053.221.035.046.093.069.173.069.062 0 .141-.03.237-.09.095-.061.183-.138.262-.232v-3.265h.85v4.301zm3.27-.891c0 .306-.067.54-.2.702-.132.163-.325.243-.576.243-.166 0-.314-.03-.444-.094a1.117 1.117 0 0 1-.363-.29v.33h-.858v-5.83h.858v1.876c.114-.13.236-.23.365-.299a.827.827 0 0 1 .39-.103c.269 0 .474.092.616.276.141.184.212.451.212.803v2.386zm3.14-1.159h-1.625v.812c0 .226.028.383.084.47.056.088.152.132.287.132.14 0 .239-.037.295-.111.056-.074.084-.238.084-.491v-.3h.875v.324c0 .44-.107.773-.32.996-.213.223-.53.335-.954.335-.38 0-.68-.119-.898-.355-.218-.237-.328-.562-.328-.976v-1.93c0-.374.12-.678.36-.913s.55-.353.93-.353c.39 0 .688.109.897.327.208.217.312.53.312.938v1.095zm-1.246-1.607c-.135 0-.232.04-.29.117-.06.078-.09.207-.09.387v.436h.751v-.436c0-.18-.03-.309-.088-.387-.06-.078-.153-.117-.283-.117zm-3.123-.015c-.06 0-.12.014-.18.042a.622.622 0 0 0-.174.131v2.68c.069.07.136.12.2.152a.47.47 0 0 0 .206.046c.104 0 .18-.03.23-.09.048-.061.073-.16.073-.297v-2.22c0-.146-.03-.256-.091-.331-.06-.076-.148-.113-.264-.113z"/>
        <circle cx="13.5" cy="13.5" r="13.5" stroke="#697589"/>
    </g>
</svg>
