<svg xmlns="http://www.w3.org/2000/svg" xmlns:xlink="http://www.w3.org/1999/xlink" width="144" height="144" viewBox="0 0 144 144">
    <defs>
        <path id="a" d="M0 68c0 37.486 30.514 68 68 68 37.486 0 68-30.514 68-68 0-37.486-30.514-68-68-68C30.514 0 0 30.514 0 68zm28.422 46.58c10.04-6.779 18.66-11.13 21.197-12.385a4.453 4.453 0 0 0 2.51-4.016v-8.535c0-.614-.167-1.2-.474-1.73-1.729-2.928-2.928-6.442-3.542-10.43a3.391 3.391 0 0 0-2.454-2.762c-.335-.418-1.283-1.869-2.483-6.08-.948-3.347-.948-4.993-.864-5.663a3.382 3.382 0 0 0 2.677-1.31c.726-.92.92-2.148.53-3.236-1.339-3.793-1.506-7.67-.474-11.63.893-3.794 2.929-7.364 6.08-10.6a29.216 29.216 0 0 1 5.746-4.741c.028-.028.084-.056.112-.084 1.757-1.227 3.57-2.147 5.383-2.761h.028c1.534-.53 3.124-.809 4.825-.893 4.574-.39 8.674.447 12.272 2.594 3.961 2.176 5.55 5.02 5.55 5.02a3.445 3.445 0 0 0 2.79 1.842c.028 0 1.534.279 2.9 2.064 1.618 2.147 3.906 7.726 1.116 21.197-.306 1.534.447 3.068 1.813 3.738.112.53.251 2.147-.808 5.913-.949 3.347-1.73 4.937-2.204 5.662a3.561 3.561 0 0 0-1.785.223 3.433 3.433 0 0 0-2.036 2.538c-.558 3.152-1.423 5.969-2.594 8.368a3.463 3.463 0 0 0-.335 1.478v9.874c0 1.729.949 3.263 2.51 4.016 2.567 1.255 11.185 5.634 21.198 12.384-10.682 9.093-24.489 14.587-39.578 14.587-15.117-.055-28.924-5.55-39.606-14.643zM68 6.832c33.721 0 61.167 27.446 61.167 61.167 0 16.121-6.276 30.82-16.512 41.754-9.567-6.555-18.074-11.101-21.923-13.026v-7.642c.92-2.008 1.673-4.24 2.231-6.61 2.733-1.032 4.658-4.212 6.471-10.6 1.646-5.828 1.506-9.929-.446-12.271 2.036-11.185 1.115-19.44-2.762-24.545-2.008-2.678-4.35-3.85-5.968-4.351-1.144-1.618-3.459-4.24-7.308-6.36-4.77-2.817-10.236-3.988-16.121-3.486-2.232.112-4.435.53-6.583 1.255h-.028c-2.398.809-4.741 2.008-7 3.57a37.695 37.695 0 0 0-6.974 5.746c-4.016 4.1-6.638 8.73-7.781 13.667-1.06 4.072-1.172 8.144-.307 12.16-.363.28-.725.586-1.032.977-2.008 2.426-2.176 6.303-.502 12.244 1.115 3.933 2.566 7.977 5.076 9.846.753 3.766 1.953 7.196 3.598 10.209v6.191c-3.821 1.925-12.356 6.471-21.923 13.026C13.137 98.82 6.833 84.12 6.833 68 6.833 34.279 34.28 6.833 68 6.833z"/>
    </defs>
    <g fill="none" fill-rule="evenodd" transform="translate(4 4)">
        <mask id="b" fill="#fff">
            <use xlink:href="#a"/>
        </mask>
        <path fill="#000" fill-opacity=".54" d="M-4-4h144v144H-4z" mask="url(#b)" opacity=".87"/>
    </g>
</svg>
