<svg xmlns="http://www.w3.org/2000/svg" width="8" height="9" viewBox="0 0 8 9">
    <path fill="#009FF6" fill-rule="nonzero" d="M.227 0a.227.227 0 0 0-.21.133.206.206 0 0 0 .052.234L4.426 4.5.069 8.631a.205.205 0 0 0-.061.209c.02.075.082.134.161.153a.232.232 0 0 0 .22-.059L5.064 4.5.39.064A.229.229 0 0 0 .227 0zm2.935 0a.227.227 0 0 0-.21.133.206.206 0 0 0 .053.234L7.36 4.5 3.005 8.631a.205.205 0 0 0-.062.209c.02.075.082.134.162.153a.232.232 0 0 0 .22-.059L8 4.5 3.324.064A.23.23 0 0 0 3.162 0z"/>
</svg>
