<svg xmlns="http://www.w3.org/2000/svg" width="144" height="144" viewBox="0 0 144 144">
    <g fill="#0EA6E4" fill-rule="evenodd">
        <path d="M31.455 107.818c2.181 0 4 1.818 4 4s-1.819 4-4 4c-2.182 0-4-1.818-4-4s1.818-4 4-4zm0 2.546c.727 0 1.454.727 1.454 1.454 0 1.091-.727 1.818-1.454 1.818-.728 0-1.455-.727-1.455-1.818 0-.727.727-1.454 1.455-1.454z"/>
        <path d="M44.182 118.364c-4.727 10.545-26.182 9.09-26.182-4V62c0-11.273 20.727-12.364 25.818-4 9.455-4.727 20-12 18.91-24C60.181 11.455 79.454 14.364 86 35.455c2.545 7.636 1.09 13.818-1.455 20.363h30.546c12 .364 13.818 14.546 6.182 19.637 4.363 5.09 2.545 14.181-4 17.818 4 5.09 1.454 14.909-4.364 17.454 2.546 5.455-.727 14.182-12 14.91-18.909.727-39.636.363-56.727-7.273zm-3.273-4c0 9.09-18.909 9.09-18.909 0V62c0-7.273 18.91-7.273 18.91 0v52.364zm4 0c16.727 7.636 37.091 8 55.636 6.909 11.637-.364 10.91-10.91 4.364-10.91h-5.818c-2.182 0-2.91-2.908 0-2.908h10.545c5.091-.364 9.091-13.819 0-13.819h-7.272c-2.91 0-2.91-3.272 0-3.272h9.09c9.091 0 11.637-13.819 1.455-13.819h-7.636c-2.91 0-2.91-3.272 0-3.272h9.454c9.455 0 9.455-13.091 0-13.455h-36C82 50.728 84.91 45.273 82 36.545c-4.727-15.636-17.09-20.363-15.273-2.909C68.182 47.455 56.91 56.182 44.91 62v52.364z"/>
    </g>
</svg>
