<svg xmlns="http://www.w3.org/2000/svg" width="12" height="13" viewBox="0 0 12 13">
    <path fill="#009FF6" fill-rule="nonzero" d="M6 0c-.53 0-1.003.242-1.332.619H3l.6 1.857h4.8L9 .62H7.332A1.765 1.765 0 0 0 6 0zM3.6 3.714S0 5.58 0 9.904C0 11.34.478 12.33 1.273 13h9.454C11.522 12.33 12 11.34 12 9.905c0-4.324-3.6-6.19-3.6-6.19H3.6zm2.243 1.06h.552v.823c.175.034 1.159.265 1.159 1.75H6.519c0-.776-.308-.898-.453-.898-.114 0-.413.02-.413.657 0 1.11 1.893.764 1.893 2.575 0 1.315-1.047 1.492-1.232 1.516v.751h-.548v-.75c-.171-.025-1.32-.155-1.32-1.789h1.035c0 .965.482.925.555.925.08 0 .476-.015.476-.646 0-1.259-1.894-.7-1.894-2.587 0-1.293 1.04-1.495 1.225-1.519v-.807z"/>
</svg>
