<svg xmlns="http://www.w3.org/2000/svg" xmlns:xlink="http://www.w3.org/1999/xlink" width="144" height="144" viewBox="0 0 144 144">
    <defs>
        <path id="a" d="M111.976 71.31a7.612 7.612 0 0 0-3.393-2.522l1.283-.981a7.59 7.59 0 0 0 2.934-5.059 7.59 7.59 0 0 0-1.502-5.651 7.613 7.613 0 0 0-3.398-2.52l1.503-1.148a7.59 7.59 0 0 0 2.934-5.059 7.59 7.59 0 0 0-1.502-5.651 7.577 7.577 0 0 0-3.764-2.645 7.595 7.595 0 0 0-2-3.478 7.591 7.591 0 0 0-5.394-2.23h-.012a7.601 7.601 0 0 0-4.063 1.179L95.6 33.92a7.59 7.59 0 0 0-2.246-5.399 7.59 7.59 0 0 0-5.395-2.23h-.012a7.594 7.594 0 0 0-4.063 1.174l-.002-1.89a7.59 7.59 0 0 0-2.246-5.399 7.589 7.589 0 0 0-5.394-2.23h-.012a7.59 7.59 0 0 0-5.4 2.247A7.59 7.59 0 0 0 68.6 25.6l.001.354a7.569 7.569 0 0 0-4.266-1.157c-4.103.111-7.435 3.602-7.43 7.78l.038 26.97-5.081 3.882 1.494-10.302c.558-4.176-2.385-8.028-6.56-8.586-5.846-.781-7.834 4.445-8.491 6.177l-3.094 8.35a1.788 1.788 0 1 0 3.353 1.242l3.09-8.336c1.505-3.962 3.199-4.084 4.668-3.888 2.22.297 3.787 2.346 3.492 4.547l-1.699 11.713a2.975 2.975 0 0 0 1.443 3.004 2.977 2.977 0 0 0 3.327-.202l4.064-3.105.019 13.367-7.29-7.432c-2.983-2.974-7.83-2.967-10.806.017a7.93 7.93 0 0 0-.265.28l-.007.007a7.586 7.586 0 0 0-1.957 5.119 7.583 7.583 0 0 0 1.59 4.655l.011.015c.069.088.14.174.212.26l.03.035c.08.094.163.185.248.275l.006.007 16.88 26.632c.025.04.053.081.083.12l.009.016.015.028.021.045.008.016.027.063.006.015.032.081.005.012c.046.124.101.288.16.491l.019.064a11.54 11.54 0 0 1 .068.258 3.362 3.362 0 0 0-1.62 1.495c-1.182.482-2.312 1.036-3.126 1.636a.682.682 0 0 0-.023.016l-.86.655-18.536-24.256-2.897-3.79c.73-.854 1.4-1.798 1.648-2.606l4.962-13.388a1.788 1.788 0 1 0-3.354-1.243l-4.984 13.449a1.8 1.8 0 0 0-.045.14c-.046.114-.235.44-.642.954a3.373 3.373 0 0 0-3.68.267l-3.659 2.796a3.491 3.491 0 0 0-3.462.264L1.528 94.57A3.503 3.503 0 0 0 .044 96.9a3.504 3.504 0 0 0 .673 2.677l27.6 36.12a3.505 3.505 0 0 0 2.77 1.37c.828 0 1.641-.296 2.275-.839l13.1-11.22a3.49 3.49 0 0 0 1.163-3.27l3.659-2.797a3.349 3.349 0 0 0 1.294-2.23c.067-.497.02-.99-.126-1.454l1.006-.766c.167-.122.37-.25.602-.38l.003 2.074a3.491 3.491 0 0 0-1.888 2.913l-.935 17.222a3.504 3.504 0 0 0 .953 2.592A3.504 3.504 0 0 0 54.725 140h.005l45.459-.069a3.505 3.505 0 0 0 2.534-1.096c.655-.695 1-1.64.945-2.594l-.987-17.22a3.49 3.49 0 0 0-1.897-2.907l-.007-4.605a3.348 3.348 0 0 0-.99-2.382 3.355 3.355 0 0 0-1.233-.78v-1.264c.023-1.182.59-3.329 1.557-5.894a1.788 1.788 0 1 0-3.347-1.261c-.797 2.113-1.753 5.062-1.786 7.11v1.109l-15.08.023-20.217.03c-.24-1.12-.584-2.203-1.072-2.884l-.003-.005-16.944-26.735a1.801 1.801 0 0 0-.248-.309 4.069 4.069 0 0 1-.009-5.747c1.582-1.588 4.161-1.592 5.734-.024l8.287 8.45a2.976 2.976 0 0 0 3.265.673 2.976 2.976 0 0 0 1.855-2.769l-.025-18.423-.039-27.855c-.003-2.257 1.769-4.141 3.95-4.2a4.044 4.044 0 0 1 2.947 1.147 4.033 4.033 0 0 1 1.232 2.91l.047 35.093a1.788 1.788 0 0 0 1.788 1.786h.002a1.788 1.788 0 0 0 1.786-1.79l-.047-35.095-.01-6.828a4.037 4.037 0 0 1 1.186-2.876 4.038 4.038 0 0 1 2.873-1.195h.006c1.083 0 2.102.421 2.87 1.187a4.039 4.039 0 0 1 1.194 2.872v.01l.057 41.912a1.788 1.788 0 0 0 1.789 1.786h.002a1.788 1.788 0 0 0 1.786-1.79l-.046-33.539.001-.022a4.037 4.037 0 0 1 1.187-2.876 4.039 4.039 0 0 1 2.872-1.195h.006c1.083 0 2.102.421 2.87 1.186a4.039 4.039 0 0 1 1.194 2.872l.045 33.56a1.788 1.788 0 0 0 1.788 1.786h.003a1.788 1.788 0 0 0 1.786-1.79l-.034-25.443.001-.027a4.07 4.07 0 0 1 4.059-4.07h.006c1.083 0 2.102.42 2.87 1.186a4.025 4.025 0 0 1 1.193 2.84v.02l-.387 41.406c-.002.122-.007.243-.011.365V83.773a15.309 15.309 0 0 1-2.713 8.191 1.788 1.788 0 1 0 2.943 2.033 18.872 18.872 0 0 0 3.294-9.229l3.678-2.747c3.347-2.559 3.99-7.363 1.43-10.711zm-80.872 62.143L3.614 97.478l14.124-9.596 26.335 34.463-12.969 11.108zm14.655-14.791l-24.024-31.44 3.189-2.437.332.435a.06.06 0 0 1 .003.004l17.295 22.634 6.394 8.367-3.189 2.437zm53.243.646H99h.114l.977 17.047-45.276.068.926-17.05 43.26-.065zm-14.224-7.569l11.99-.018h.433l.006 4.013-39.568.06-.006-4.014 27.145-.04zm22.52-67.562a4.07 4.07 0 0 1-.06 6.406l.06-6.406zm-.132 13.986a4.07 4.07 0 0 1 .528 6.803l-.596.455.068-7.258zm2.767 18.325a4.027 4.027 0 0 1-1.545 2.68l-1.429 1.067.077-8.193a4.043 4.043 0 0 1 2.098 1.44c.66.862.943 1.93.8 3.006zM39.118.775c-.229.824.403 2.541 1.409 3.832l7.323 9.399c1.006 1.292 2.008 1.67 2.236.845.178-.643-.165-1.826-.802-2.928a7.936 7.936 0 0 0-.607-.904L41.354 1.62C40.348.328 39.347-.05 39.118.775M21.717 25.442c.244.977 1.88 2.348 3.652 3.062l7.961 3.207c1.773.714 3.012.501 2.768-.476-.19-.761-1.225-1.762-2.511-2.504a9.07 9.07 0 0 0-1.141-.558l-7.962-3.208c-1.773-.714-3.012-.5-2.767.477m7.361-13.436c-.017 1.008 1.208 2.755 2.735 3.904l6.86 5.158c1.528 1.149 2.78 1.264 2.797.257.013-.785-.727-2.02-1.777-3.07a9.07 9.07 0 0 0-.958-.834l-6.86-5.158c-1.528-1.15-2.78-1.264-2.797-.257m102.457 8.803c-.825-.229-2.542.402-3.833 1.408l-9.398 7.324c-1.292 1.006-1.67 2.007-.846 2.236.643.178 1.826-.165 2.929-.802.312-.18.618-.385.904-.607l9.398-7.323c1.292-1.007 1.67-2.008.846-2.236M106.868 3.407c-.978.245-2.349 1.88-3.063 3.652l-3.207 7.962c-.714 1.773-.5 3.012.476 2.768.762-.19 1.762-1.225 2.505-2.511.21-.365.4-.75.558-1.142l3.207-7.961c.714-1.773.501-3.012-.476-2.768m13.435 7.362c-1.008-.017-2.755 1.208-3.904 2.735l-5.158 6.86c-1.149 1.528-1.263 2.78-.256 2.797.784.013 2.018-.727 3.069-1.777.297-.298.58-.62.834-.958l5.159-6.86c1.148-1.528 1.263-2.78.256-2.797"/>
    </defs>
    <g fill="none" fill-rule="evenodd" transform="translate(7)">
        <mask id="b" fill="#fff">
            <use xlink:href="#a"/>
        </mask>
        <path fill="#2196F3" d="M422 429h-715v-715h715z" mask="url(#b)" opacity=".34"/>
    </g>
</svg>
