<svg xmlns="http://www.w3.org/2000/svg" xmlns:xlink="http://www.w3.org/1999/xlink" width="136" height="136" viewBox="0 0 136 136">
    <defs>
        <path id="a" d="M68 136c-37.494 0-68-30.506-68-68S30.506 0 68 0s68 30.506 68 68-30.506 68-68 68zm-27.54-35.436h55.08c1.36 0 2.46-2.138 2.46-4.782S96.9 91 95.54 91H40.46C39.1 91 38 93.138 38 95.782s1.1 4.782 2.46 4.782zM53.68 58.53A7.992 7.992 0 0 0 56 52.89c0-2.12-.84-4.16-2.32-5.64-3-3-8.36-3-11.36 0A7.992 7.992 0 0 0 40 52.89c0 2.12.84 4.16 2.36 5.64 1.48 1.52 3.56 2.36 5.64 2.36 2.12 0 4.16-.84 5.68-2.36zm41.956 0A7.852 7.852 0 0 0 98 52.89c0-2.12-.84-4.16-2.364-5.64-2.956-3-8.32-3-11.276 0A7.864 7.864 0 0 0 82 52.89c0 2.12.84 4.16 2.36 5.64A7.864 7.864 0 0 0 90 60.89c2.08 0 4.16-.84 5.636-2.36z"/>
    </defs>
    <g fill="none" fill-rule="evenodd">
        <mask id="b" fill="#fff">
            <use xlink:href="#a"/>
        </mask>
        <use fill="#000" fill-opacity="0" xlink:href="#a"/>
        <path fill="#000" d="M-4-4h144v144H-4z" mask="url(#b)" opacity=".34"/>
    </g>
</svg>
