<svg xmlns="http://www.w3.org/2000/svg" xmlns:xlink="http://www.w3.org/1999/xlink" width="138" height="116" viewBox="0 0 138 116">
    <defs>
        <path id="a" d="M108.947 0c-4.009 0-7.263 3.248-7.263 7.25v101.5c0 4.002 3.254 7.25 7.263 7.25h21.79c4.01 0 7.263-3.248 7.263-7.25V7.25c0-4.002-3.254-7.25-7.263-7.25h-21.79zM58.105 29c-4.009 0-7.263 3.248-7.263 7.25v72.5c0 4.002 3.254 7.25 7.263 7.25h21.79c4.009 0 7.263-3.248 7.263-7.25v-72.5c0-4.002-3.254-7.25-7.263-7.25h-21.79zM7.263 58C3.253 58 0 61.248 0 65.25v43.5c0 4.002 3.254 7.25 7.263 7.25h21.79c4.009 0 7.263-3.248 7.263-7.25v-43.5c0-4.002-3.254-7.25-7.263-7.25H7.263z"/>
    </defs>
    <use fill="#009FF6" fill-rule="nonzero" xlink:href="#a"/>
</svg>
