<svg xmlns="http://www.w3.org/2000/svg" width="17" height="19" viewBox="0 0 17 19">
    <path fill="#00CDF0" fill-rule="nonzero" d="M15.111 0c0 .524-.423.95-.944.95a.948.948 0 0 1-.945-.95h-1.889c0 .524-.423.95-.944.95A.948.948 0 0 1 9.444 0H7.556c0 .524-.424.95-.945.95A.948.948 0 0 1 5.667 0h-1.89c0 .524-.422.95-.944.95A.948.948 0 0 1 1.89 0H0v17.1C0 18.15.845 19 1.889 19H15.11C16.155 19 17 18.15 17 17.1V0h-1.889zM10.39 15.2H2.833v-1.9h7.556v1.9zm0-3.8H2.833V9.5h7.556v1.9zm3.778 3.8h-1.89v-1.9h1.89v1.9zm0-3.8h-1.89V9.5h1.89v1.9zm0-4.75H2.833v-1.9h11.334v1.9z"/>
</svg>
