<svg xmlns="http://www.w3.org/2000/svg" width="11" height="13" viewBox="0 0 11 13">
    <path fill="#009FF6" fill-rule="nonzero" d="M6.875 0h-5.5C.619 0 0 .585 0 1.3v10.4c0 .715.619 1.3 1.375 1.3h8.25c.756 0 1.375-.585 1.375-1.3V3.9L6.875 0zm1.622 10.307c-.185.373-.552.532-.98.426-.368-.106-.797-.373-1.226-.799-.428.054-.857.16-1.286.266-.49.746-.98 1.384-1.47 1.544a.911.911 0 0 1-.369.074c-.245 0-.428-.074-.551-.234-.122-.16-.367-.479.122-.957.307-.32 1.041-.64 1.838-.852.245-.426.429-.852.613-1.33-.429-.693-.674-1.438-.613-1.864.062-.427.377-.672.797-.672.42 0 .673.245.796.618.123.426 0 1.118-.306 1.916.184.32.429.64.674.958.735-.053 1.347-.053 1.715.16.307.16.368.426.246.746zM6.11 4.727V1.182l3.667 3.545H6.11z"/>
</svg>
