<svg xmlns="http://www.w3.org/2000/svg" xmlns:xlink="http://www.w3.org/1999/xlink" width="136" height="117" viewBox="0 0 136 117">
    <defs>
        <path id="a" d="M109.577 62.83V12.622C109.577 5.669 103.943 0 97.032 0H12.545C5.635 0 0 5.669 0 12.622V62.83c0 6.953 5.634 12.622 12.545 12.622h3.58v15.135a5.044 5.044 0 0 0 5.052 5.054c1.443 0 2.831-.642 3.803-1.759l15.848-18.458H97.06c6.883.028 12.517-5.64 12.517-12.594zm-70.331 5.78c-1 0-1.915.42-2.582 1.173L22.898 85.784V72.017a3.422 3.422 0 0 0-3.414-3.434h-6.939c-3.164 0-5.745-2.597-5.745-5.78V12.621c0-3.184 2.581-5.78 5.745-5.78h84.487c3.164 0 5.745 2.596 5.745 5.78V62.83c0 3.184-2.581 5.78-5.745 5.78H39.246zm71.691 45.964L95.061 96.172H45.546a3.422 3.422 0 0 1-3.414-3.435 3.422 3.422 0 0 1 3.414-3.434h51.07c.999 0 1.942.418 2.58 1.172l13.767 16.001V92.71a3.422 3.422 0 0 1 3.414-3.434h6.967c3.164 0 5.745-2.597 5.745-5.78V33.285c0-3.183-2.581-5.78-5.745-5.78a3.422 3.422 0 0 1-3.414-3.435 3.416 3.416 0 0 1 3.414-3.407c6.91 0 12.545 5.669 12.545 12.622v50.208c0 6.953-5.634 12.622-12.545 12.622h-3.58v15.135c0 2.15-1.277 3.993-3.276 4.747a5.001 5.001 0 0 1-1.776.335 4.947 4.947 0 0 1-3.775-1.759zM54.79 43.004c2.238 0 4.052-1.826 4.052-4.077 0-2.252-1.814-4.077-4.052-4.077-2.238 0-4.053 1.825-4.053 4.077 0 2.251 1.815 4.077 4.053 4.077zm13.572 0c2.238 0 4.052-1.826 4.052-4.077 0-2.252-1.814-4.077-4.052-4.077-2.238 0-4.052 1.825-4.052 4.077 0 2.251 1.814 4.077 4.052 4.077zm-27.145 0c2.238 0 4.053-1.826 4.053-4.077 0-2.252-1.815-4.077-4.053-4.077s-4.052 1.825-4.052 4.077c0 2.251 1.814 4.077 4.052 4.077z"/>
    </defs>
    <g fill="none" fill-rule="evenodd">
        <mask id="b" fill="#fff">
            <use xlink:href="#a"/>
        </mask>
        <path fill="#000" fill-opacity=".54" d="M-9.638-19.276h154.205v154.205H-9.638z" mask="url(#b)" opacity=".87"/>
    </g>
</svg>
