<svg xmlns="http://www.w3.org/2000/svg" xmlns:xlink="http://www.w3.org/1999/xlink" width="45" height="43" viewBox="0 0 45 43">
    <defs>
        <path id="a" d="M0 .035h43.007v42.03H0z"/>
    </defs>
    <g fill="none" fill-rule="evenodd">
        <g>
            <mask id="b" fill="#fff">
                <use xlink:href="#a"/>
            </mask>
            <path fill="#0FB199" d="M41.19 17.496c-1.003 0-1.816.795-1.816 1.776v1.788c-.003 4.665-1.864 9.05-5.242 12.346-3.374 3.294-7.859 5.108-12.628 5.108h-.01C11.64 38.51 3.627 30.67 3.633 21.04c.002-4.665 1.864-9.05 5.241-12.346 3.375-3.294 7.86-5.108 12.628-5.108h.011a18.11 18.11 0 0 1 7.263 1.512c.917.4 1.99-.003 2.399-.899a1.76 1.76 0 0 0-.92-2.344 21.791 21.791 0 0 0-8.74-1.82h-.013c-5.738 0-11.135 2.183-15.196 6.147C2.243 10.149.003 15.425 0 21.038c-.003 5.613 2.23 10.892 6.29 14.864 4.059 3.971 9.458 6.16 15.201 6.163h.013c5.739 0 11.136-2.183 15.196-6.146 4.064-3.967 6.304-9.243 6.307-14.858v-1.789c0-.98-.813-1.776-1.816-1.776" mask="url(#b)"/>
        </g>
        <path fill="#0FB199" d="M44.466 2.471a1.872 1.872 0 0 0-2.578 0l-20.442 19.7-4.638-4.469a1.872 1.872 0 0 0-2.578 0 1.712 1.712 0 0 0 0 2.485l5.926 5.711c.356.344.823.515 1.29.515.466 0 .933-.171 1.289-.515L44.466 4.956a1.712 1.712 0 0 0 0-2.485"/>
    </g>
</svg>
