<svg xmlns="http://www.w3.org/2000/svg" xmlns:xlink="http://www.w3.org/1999/xlink" width="109" height="109" viewBox="0 0 109 109">
    <defs>
        <path id="a" d="M49.05 0v27.25H32.7l21.8 21.8 21.8-21.8H59.95V0h-10.9zM13.455 38.15L1.363 66.592C.49 68.636 0 70.83 0 73.064V98.1c0 6.004 4.896 10.9 10.9 10.9h87.2c6.004 0 10.9-4.896 10.9-10.9V73.064c0-2.235-.49-4.45-1.362-6.472L95.544 38.15H83.623L95.205 65.4h-81.41l11.582-27.25H13.455zM87.2 79.025a8.177 8.177 0 0 1 8.175 8.175 8.177 8.177 0 0 1-8.175 8.175 8.177 8.177 0 0 1-8.175-8.175 8.177 8.177 0 0 1 8.175-8.175z"/>
    </defs>
    <g fill="none" fill-rule="evenodd">
        <g>
            <mask id="b" fill="#fff">
                <use xlink:href="#a"/>
            </mask>
            <path fill="#FFF" d="M-12.361-12.361h144v144h-144z" mask="url(#b)"/>
        </g>
    </g>
</svg>
