<svg xmlns="http://www.w3.org/2000/svg" width="166" height="63" viewBox="0 0 166 63">
    <g fill="#FFF" fill-rule="evenodd">
        <path d="M151.262 33.398c-10.744 7.324-22.708 12.555-35.786 13.551-6.3.467-12.037.066-18.221-1.218-9.689-1.934-19.214-4.463-28.832-6.7-7.01-1.516-14.034-3.035-21.166-3.858-7.128-.93-13.781-1.188-20.913-.05C17.376 36.443 8.045 39.489 0 43.7v6.395c9.324-5.116 19.289-9.254 29.746-11.368 7.466-1.582 13.242-1.456 20.76-.712 6.625.666 13.219 2.024 19.693 3.553 13.52 3.372 26.598 7.333 40.608 8.172 14.339.896 28.401-1.406 40.404-9.745l.05-6.598"/>
        <path d="M158.243 40.229c-10.586 7.308-22.864 12.602-35.798 13.552-6.099.486-12.24.013-18.228-1.218-9.666-1.927-19.185-4.5-28.79-6.7-7.114-1.534-13.914-3.053-21.174-3.858-7.188-.935-13.777-1.183-20.97-.05-9.162 1.362-18.05 4.347-26.302 8.527v6.446c9.028-5.035 19.591-9.33 29.704-11.37 7.437-1.555 13.322-1.496 20.817-.71 6.65.665 13.201 2.04 19.702 3.552 13.517 3.413 26.613 7.311 40.62 8.173 14.248.896 28.474-1.403 40.368-9.745l.051-6.6"/>
        <path d="M166 46.301c-10.812 7.35-22.637 12.539-35.786 13.552-6.098.486-12.236.014-18.222-1.218-9.678-1.934-19.212-4.5-28.83-6.7-6.983-1.569-14-3.03-21.117-3.857-7.196-.93-13.761-1.187-20.963-.051-9.077 1.301-18.152 4.412-26.344 8.527L14.79 63c9.014-5.051 19.583-9.342 29.694-11.369 7.224-1.577 13.518-1.473 20.81-.711 6.724.684 13.129 2.012 19.694 3.553 13.621 3.46 26.482 7.283 40.607 8.172 14.212.91 28.485-1.445 40.354-9.745l.051-6.599M14.738 22.777h5.47c-.027 1.058.558 2.168 1.673 2.418.709.28 1.486.22 2.228.201.834-.157.818-.124 1.57-.553 3.048-3.533-3.444-4.25-5.572-5.04-2.006-.595-4.228-1.702-4.811-3.879-.583-2.79.327-4.87 2.786-6.35 4.068-2.413 13.297-1.93 13.067 4.434h-5.115c-.186-2.823-4.138-2.906-5.369-1.26-.219.3-.265.692-.254 1.059-.046.435.327.726.609 1.008.953.61 2.137.99 3.24 1.21 1.616.378 2.806.708 4.357 1.31 2.143 1.014 3.295 2.266 3.445 4.686.106 2.355-1.124 4.523-3.141 5.744-2.558 1.812-6.72 1.876-9.624 1.009-2.882-.898-4.52-2.968-4.559-5.997zm25.073-6.5h6.94c-.13-2.28-.748-4.342-3.444-4.334-2.378-.058-3.453 2.277-3.496 4.334zm12.258 6.248c-.288 6.905-9.4 8.298-14.233 5.24-1.963-1.482-2.88-3.093-3.495-5.442-.55-2.715-.494-6.247.658-8.818 1.946-4.733 6.989-5.981 11.65-4.888 5.115 1.546 6.318 6.603 6.028 11.389l-13.018.05c.017 2.503.656 5.316 3.698 5.34 2.04-.064 3.029-.923 3.546-2.87h5.166zm8.814-3.729c-.014 2.688.717 6.5 4.103 6.55 3.345-.032 4.39-3.808 4.305-6.55.086-2.718-.97-6.546-4.305-6.55-3.354.014-4.117 3.909-4.103 6.55zm8.56 10.028l-.152-2.872c-2.02 3-5.519 3.955-8.864 2.771-3.904-1.471-5.632-6.021-5.47-9.927-.073-2.393.45-4.8 1.671-6.853.561-.681.867-1.315 1.62-1.865.674-.567 1.289-.9 2.077-1.26 3.136-1.093 7.052-.295 8.864 2.67V0h5.826v26.153l.05.303v.554c.006.501.068 1.325.152 1.814h-5.774zm21.02-9.625c-2.082-.118-5.104.117-6.179 2.217-.214.481-.275.537-.253 1.11l-.05.2v.152l.05.15v.253l.05.151.05.1c.163.724.053.16.304.707.348.337.206.318.66.654.293.143.337.203.708.353.332.07.667.166 1.014.15.863-.024 1.773-.267 2.38-.906.721-.657.992-1.602 1.216-2.52.069-.774.137-1.08.101-1.914v-.757l-.05-.1zm.913 9.625c-.123-.888-.241-1.814-.254-2.72-.747.939-1.618 1.84-2.685 2.418-1.207.687-2.087.85-3.444.958-3.557.1-6.367-2.104-6.686-5.695-.172-2.163.467-4.355 2.28-5.695 1.106-.942 2.517-1.378 3.9-1.763 1.377-.299 3.296-.424 4.71-.454.2.007 1.2.033 1.317.1.166-1.638.066-3.93-1.925-4.383-2.316-.284-3.36.425-3.646 2.771h-5.825c.03-2.904 1.599-4.955 4.457-5.644 1.583-.466 3.58-.602 5.217-.453.665-.026 2.15.267 2.786.504.39.059.86.403 1.165.453 1.518.812 2.738 2.09 3.09 3.83.548 3.478.123 7.04.304 10.532.044 1.747.187 3.492.303 5.241h-5.064zm22.996-10.079c.067-2.605-.758-6.622-4.103-6.55-3.354-.075-4.366 3.878-4.306 6.55-.058 2.71.963 6.56 4.306 6.551 3.34.042 4.164-3.935 4.103-6.55zM105.81 8.717l.204 2.873c1.967-2.97 5.265-3.903 8.61-2.873 4.135 1.398 5.769 6.07 5.724 10.08 0 4.063-1.48 8.512-5.623 9.977-3.355.95-6.614.257-8.662-2.722v10.382h-5.824V11.035l-.051-.252c.01-.602-.05-1.48-.153-2.066h5.775zM134.886 19.2c-1.393-.109-2.838.019-4.154.505-.665.19-1.848 1.017-2.026 1.712-.33.454-.401 1.602-.203 2.116l.052.152.05.1.05.152.102.202.1.1c.205.338.39.44.659.655 1.118.812 3.117.605 4.052-.403 1.355-1.225 1.425-3.603 1.318-5.29zm.86 9.625a94.296 94.296 0 0 1-.253-2.72c-.704.985-1.613 1.786-2.633 2.418-1.348.705-2.003.838-3.495.958-3.445.157-6.447-2.193-6.636-5.695-.273-2.115.494-4.391 2.229-5.695 1.118-.929 2.515-1.375 3.9-1.763 1.714-.308 4.34-.612 6.078-.353.042-1.715.098-3.9-1.974-4.384-2.256-.281-3.407.44-3.597 2.771h-5.826c-.051-2.902 1.633-4.979 4.458-5.644 2.702-.762 6.564-.758 9.118.504 1.415.657 2.915 2.281 3.089 3.83.633 3.457.198 7.034.304 10.532.108 1.738.169 3.505.304 5.241h-5.065zm8.915 0h5.825V0h-5.825v28.824z"/>
    </g>
</svg>
