<?xml version="1.0" ?><!DOCTYPE svg  PUBLIC '-//W3C//DTD SVG 1.1//EN'  'http://www.w3.org/Graphics/SVG/1.1/DTD/svg11.dtd'><svg height="6.82666in" style="shape-rendering:geometricPrecision; text-rendering:geometricPrecision; image-rendering:optimizeQuality; fill-rule:evenodd; clip-rule:evenodd" viewBox="0 0 6827 6827" width="6.82666in" xml:space="preserve" xmlns="http://www.w3.org/2000/svg" xmlns:xlink="http://www.w3.org/1999/xlink"><defs><style type="text/css">
   <![CDATA[
    .fil3 {fill:none}
    .fil2 {fill:#F6FFFD}
    .fil1 {fill:#FAC23C}
    .fil0 {fill:#013668;fill-rule:nonzero}
   ]]>
  </style></defs><g id="Layer_x0020_1"><g id="_271567304"><path class="fil0" d="M3413 853c707,0 1347,287 1810,750 463,463 750,1103 750,1810 0,707 -287,1347 -750,1810 -463,463 -1103,750 -1810,750 -707,0 -1347,-287 -1810,-750 -463,-463 -750,-1103 -750,-1810 0,-707 287,-1347 750,-1810 463,-463 1103,-750 1810,-750zm1697 863c-434,-434 -1034,-703 -1697,-703 -663,0 -1263,269 -1697,703 -434,434 -703,1034 -703,1697 0,663 269,1263 703,1697 434,434 1034,703 1697,703 663,0 1263,-269 1697,-703 434,-434 703,-1034 703,-1697 0,-663 -269,-1263 -703,-1697z"/><path class="fil0" d="M2233 4797c-21,39 -69,53 -108,32 -39,-21 -53,-69 -32,-108 116,-214 305,-395 540,-520 225,-121 493,-191 780,-191 287,0 555,70 780,191 235,126 423,306 540,520 21,39 7,87 -32,108 -39,21 -87,7 -108,-32 -102,-187 -267,-345 -475,-456 -203,-108 -445,-171 -705,-171 -261,0 -503,63 -705,171 -207,111 -373,269 -475,456z"/><path class="fil0" d="M2519 2188c115,0 218,46 293,121 75,75 121,179 121,293 0,115 -46,218 -121,293 -75,75 -179,121 -293,121 -115,0 -218,-46 -293,-121 -75,-75 -121,-179 -121,-293 0,-115 46,-218 121,-293 75,-75 179,-121 293,-121zm180 235c-46,-46 -110,-75 -180,-75 -70,0 -134,29 -180,75 -46,46 -75,110 -75,180 0,70 29,134 75,180 46,46 110,75 180,75 70,0 134,-29 180,-75 46,-46 75,-110 75,-180 0,-70 -29,-134 -75,-180z"/><path class="fil0" d="M4308 2188c115,0 218,46 293,121 75,75 121,179 121,293 0,115 -46,218 -121,293 -75,75 -179,121 -293,121 -115,0 -218,-46 -293,-121 -75,-75 -121,-179 -121,-293 0,-115 46,-218 121,-293 75,-75 179,-121 293,-121zm180 235c-46,-46 -110,-75 -180,-75 -70,0 -134,29 -180,75 -46,46 -75,110 -75,180 0,70 29,134 75,180 46,46 110,75 180,75 70,0 134,-29 180,-75 46,-46 75,-110 75,-180 0,-70 -29,-134 -75,-180z"/></g><path class="fil1" d="M4308 2188c115,0 218,46 293,121 75,75 121,179 121,293 0,115 -46,218 -121,293 -75,75 -179,121 -293,121 -115,0 -218,-46 -293,-121 -75,-75 -121,-179 -121,-293 0,-115 46,-218 121,-293 75,-75 179,-121 293,-121zm803 -472c-434,-434 -1034,-703 -1697,-703 -663,0 -1263,269 -1697,703 -434,434 -703,1034 -703,1697 0,663 269,1263 703,1697 434,434 1034,703 1697,703 663,0 1263,-269 1697,-703 434,-434 703,-1034 703,-1697 0,-663 -269,-1263 -703,-1697zm-2591 472c115,0 218,46 293,121 75,75 121,179 121,293 0,115 -46,218 -121,293 -75,75 -179,121 -293,121 -115,0 -218,-46 -293,-121 -75,-75 -121,-179 -121,-293 0,-115 46,-218 121,-293 75,-75 179,-121 293,-121zm-426 2533c116,-214 305,-395 540,-520 225,-121 493,-191 780,-191 287,0 555,70 780,191 235,126 423,306 540,520 21,39 7,87 -32,108 -39,21 -87,7 -108,-32 -102,-187 -267,-345 -475,-456 -203,-108 -445,-171 -705,-171 -261,0 -503,63 -705,171 -207,111 -373,269 -475,456 -21,39 -69,53 -108,32 -39,-21 -53,-69 -32,-108z"/><path class="fil2" d="M4488 2422c-46,-46 -110,-75 -180,-75 -70,0 -134,29 -180,75 -46,46 -75,110 -75,180 0,70 29,134 75,180 46,46 110,75 180,75 70,0 134,-29 180,-75 46,-46 75,-110 75,-180 0,-70 -29,-134 -75,-180z"/><path class="fil2" d="M2699 2422c-46,-46 -110,-75 -180,-75 -70,0 -134,29 -180,75 -46,46 -75,110 -75,180 0,70 29,134 75,180 46,46 110,75 180,75 70,0 134,-29 180,-75 46,-46 75,-110 75,-180 0,-70 -29,-134 -75,-180z"/></g><rect class="fil3" height="6827" width="6827"/></svg>