<svg xmlns="http://www.w3.org/2000/svg" xmlns:xlink="http://www.w3.org/1999/xlink" width="540" height="288" viewBox="0 0 540 288">
    <defs>
        <path id="a" d="M0 288h539.973V.136H0z"/>
    </defs>
    <g fill="none" fill-rule="evenodd">
        <path fill="#FFF" d="M0 287.864h539.973V0H0z"/>
        <path fill="#1E1210" d="M364.845 76.451h141.384v-2.408H364.845z"/>
        <g transform="translate(0 -.136)">
            <path fill="#273D8F" d="M191.466 60.614c-11.501 7.842-24.31 13.44-38.31 14.508-6.743.5-12.885.07-19.505-1.305-10.372-2.07-20.57-4.778-30.865-7.172-7.505-1.623-15.023-3.25-22.66-4.13-7.63-.998-14.752-1.273-22.386-.054-9.601 1.413-19.59 4.674-28.203 9.183v6.846c9.983-5.477 20.65-9.906 31.844-12.17 7.993-1.694 14.176-1.56 22.224-.762 7.093.712 14.15 2.166 21.083 3.803 14.473 3.61 28.473 7.852 43.47 8.75 15.35.959 30.405-1.508 43.254-10.434l.054-7.064"/>
            <path fill="#273D8F" d="M198.856 67.569c-11.328 7.824-24.468 13.49-38.309 14.508-6.527.52-13.099.013-19.506-1.304-10.345-2.062-20.532-4.816-30.811-7.172-7.613-1.642-14.889-3.27-22.659-4.131-7.692-1.001-14.744-1.266-22.441-.053-9.804 1.458-19.317 4.655-28.148 9.129v6.9c9.662-5.39 20.966-9.987 31.789-12.172 7.959-1.665 14.256-1.601 22.277-.76 7.117.712 14.127 2.184 21.084 3.803 14.465 3.653 28.48 7.827 43.471 8.749 15.246.959 30.471-1.502 43.199-10.433l.054-7.064"/>
            <path fill="#273D8F" d="M207.17 74.524c-11.575 7.868-24.233 13.424-38.309 14.508-6.528.52-13.099.014-19.508-1.304-10.36-2.07-20.566-4.816-30.863-7.173-7.475-1.68-14.987-3.243-22.605-4.13-7.704-.995-14.733-1.27-22.441-.053-9.718 1.393-19.432 4.723-28.203 9.129l.055 6.9C54.947 86.995 66.261 82.4 77.085 80.23c7.733-1.687 14.471-1.577 22.277-.761 7.199.732 14.056 2.154 21.083 3.804 14.582 3.703 28.35 7.797 43.471 8.748 15.214.975 30.493-1.547 43.2-10.433l.054-7.064M45.405 48.55h5.868c-.03 1.142.598 2.339 1.794 2.608.76.303 1.595.237 2.39.218.895-.17.878-.136 1.685-.597 3.27-3.81-3.695-4.584-5.978-5.436-2.153-.642-4.535-1.835-5.162-4.183-.624-3.007.352-5.25 2.989-6.846 4.365-2.602 14.266-2.081 14.019 4.782h-5.488c-.2-3.045-4.44-3.134-5.76-1.358-.234.322-.283.745-.272 1.14-.05.47.352.782.653 1.087 1.023.656 2.293 1.067 3.478 1.303 1.732.41 3.009.765 4.672 1.413 2.299 1.096 3.535 2.445 3.696 5.055.114 2.54-1.205 4.877-3.37 6.194-2.744 1.953-7.21 2.023-10.323 1.087-3.093-.968-4.85-3.2-4.891-6.467zm26.897-7.008h7.445c-.138-2.46-.802-4.683-3.695-4.675-2.551-.061-3.704 2.457-3.75 4.675zm13.15 6.737c-.31 7.444-10.085 8.948-15.268 5.65-2.107-1.598-3.09-3.336-3.75-5.869-.59-2.927-.53-6.736.706-9.509 2.088-5.102 7.497-6.449 12.498-5.27 5.487 1.669 6.777 7.122 6.467 12.282l-13.966.052c.018 2.7.703 5.733 3.967 5.76 2.19-.07 3.249-.995 3.804-3.096h5.542zm9.455-4.02c-.014 2.897.769 7.008 4.402 7.063 3.589-.036 4.71-4.108 4.618-7.064.093-2.931-1.04-7.06-4.618-7.065-3.598.018-4.416 4.218-4.402 7.066zm9.184 10.813l-.164-3.099c-2.167 3.236-5.92 4.266-9.51 2.99-4.187-1.587-6.04-6.494-5.867-10.705-.08-2.58.483-5.177 1.793-7.39.602-.735.93-1.419 1.738-2.01.722-.612 1.382-.972 2.228-1.36 3.364-1.178 7.565-.319 9.509 2.88V23.99h6.25v28.202l.054.326v.597c.006.54.073 1.43.163 1.958h-6.194zm22.549-10.38c-2.234-.127-5.475.127-6.63 2.392-.228.517-.293.577-.27 1.195l-.055.217v.163l.055.163v.271l.053.164.055.108c.175.78.056.172.326.761.373.364.22.343.707.707.315.154.363.218.76.38.356.075.716.18 1.087.163.927-.027 1.903-.29 2.553-.978.774-.709 1.064-1.729 1.306-2.718.073-.834.147-1.164.109-2.065V44.8l-.056-.107zm.979 10.38c-.132-.959-.258-1.957-.272-2.936-.801 1.014-1.735 1.985-2.88 2.608-1.295.743-2.24.917-3.695 1.035-3.815.107-6.83-2.27-7.173-6.142-.183-2.331.5-4.697 2.445-6.14 1.188-1.016 2.702-1.486 4.185-1.903 1.478-.32 3.536-.456 5.052-.489.216.009 1.288.036 1.415.11.176-1.768.069-4.24-2.066-4.728-2.485-.306-3.604.459-3.912 2.988h-6.25c.034-3.132 1.717-5.343 4.783-6.086 1.698-.503 3.84-.649 5.596-.489.714-.027 2.308.288 2.989.544.419.064.923.435 1.25.49 1.629.875 2.937 2.253 3.315 4.13.587 3.75.132 7.59.326 11.356.047 1.883.2 3.765.325 5.651h-5.433zm24.67-10.87c.072-2.808-.813-7.14-4.403-7.063-3.597-.08-4.682 4.182-4.618 7.063-.062 2.924 1.033 7.074 4.618 7.066 3.584.044 4.468-4.245 4.403-7.066zm-9.184-10.813l.218 3.098c2.11-3.203 5.649-4.208 9.237-3.098 4.437 1.508 6.189 6.545 6.14 10.87.002 4.38-1.587 9.178-6.031 10.758-3.6 1.024-7.096.277-9.293-2.934v11.194h-6.247V35.888l-.056-.272c.01-.65-.054-1.595-.163-2.227h6.195zm31.19 11.303c-1.494-.117-3.044.02-4.455.544-.715.206-1.983 1.098-2.173 1.848-.355.488-.431 1.726-.22 2.28l.057.165.053.108.055.163.108.218.109.108c.219.364.417.474.706.707 1.199.875 3.344.651 4.348-.435 1.452-1.323 1.528-3.887 1.413-5.706zm.924 10.38a101.268 101.268 0 0 1-.272-2.936c-.755 1.063-1.73 1.927-2.825 2.608-1.446.761-2.148.906-3.75 1.035-3.695.167-6.915-2.365-7.117-6.142-.293-2.28.528-4.734 2.39-6.14 1.199-1.002 2.698-1.483 4.184-1.903 1.839-.331 4.656-.659 6.52-.38.045-1.849.105-4.206-2.118-4.727-2.42-.303-3.654.475-3.858 2.988h-6.25c-.055-3.13 1.752-5.369 4.782-6.086 2.899-.82 7.042-.818 9.78.544 1.519.709 3.129 2.46 3.316 4.13.679 3.727.212 7.584.326 11.357.116 1.873.18 3.779.327 5.651h-5.435zm9.563 0h6.249V23.989h-6.25v31.082z"/>
            <mask id="b" fill="#fff">
                <use xlink:href="#a"/>
            </mask>
            <path stroke="#1E1210" stroke-width="2" d="M364.563 101.402h141.666v-78H364.563z" mask="url(#b)"/>
        </g>
        <text fill="#273D8F" font-family="Roboto-Regular, Roboto" font-size="9" transform="translate(0 -1)">
            <tspan x="27.385" y="119.135">Se</tspan> <tspan x="37.492" y="119.135" letter-spacing=".083">r</tspan> <tspan x="40.7" y="119.135">vicio de Agua </tspan> <tspan x="96.576" y="119.135" letter-spacing="-.063">P</tspan> <tspan x="102.134" y="119.135">otable y Alcantarillado de Lima </tspan>
        </text>
        <text fill="#273D8F" font-family="Roboto-Regular, Roboto" font-size="9" letter-spacing="-.217" transform="translate(0 -1)">
            <tspan x="54.493" y="129.935">A</tspan> <tspan x="59.927" y="129.935" letter-spacing="-.466">v</tspan> <tspan x="63.35" y="129.935">. Rami</tspan> <tspan x="88.456" y="129.935" letter-spacing="-.089">r</tspan> <tspan x="91.325" y="129.935">o Priale &amp; 22 A El Agustino</tspan>
        </text>
        <text fill="#273D8F" font-family="Roboto-Regular, Roboto" font-size="9" transform="translate(0 -1)">
            <tspan x="88.702" y="140.735">RUC 20100152356</tspan>
        </text>
        <text fill="#273D8F" font-family="Roboto-Regular, Roboto" font-size="9" transform="translate(0 -1)">
            <tspan x="83.275" y="151.535">ww</tspan> <tspan x="96.801" y="151.535" letter-spacing="-.533">w</tspan> <tspan x="102.487" y="151.535">.sedapal.com.pe</tspan>
        </text>
        <text fill="#273D8F" font-family="Roboto-Bold, Roboto" font-size="15" font-weight="bold" letter-spacing="-.08" transform="translate(0 -1)">
            <tspan x="383.095" y="42.937">P</tspan> <tspan x="392.61" y="42.937">a</tspan> <tspan x="400.652" y="42.937" letter-spacing="-.222">r</tspan> <tspan x="405.681" y="42.937">a Consultas</tspan>
        </text>
        <text fill="#273D8F" font-family="Roboto-Bold, Roboto" font-size="15" font-weight="bold" transform="translate(0 -1)">
            <tspan x="387.445" y="60.937">Suminist</tspan> <tspan x="447.181" y="60.937" letter-spacing="-.276">r</tspan> <tspan x="452.113" y="60.937">o N°</tspan>
        </text>
        <text fill="#1E1210" font-family="Roboto-Bold, Roboto" font-size="20" font-weight="bold" transform="translate(0 -1)">
            <tspan x="385.454" y="94.912">1234567-1</tspan>
        </text>
        <path fill="#273D8F" d="M21.896 206.314h285.19v-23.157H21.896z"/>
        <path fill="#BBD4B0" d="M21.896 240.266h285.19v-28.073H21.896z"/>
        <text fill="#FFF" font-family="Roboto-Medium, Roboto" font-size="15" font-weight="400" transform="translate(0 -1)">
            <tspan x="27.23" y="197.118">Información gene</tspan> <tspan x="145.347" y="197.118" letter-spacing="-.204">r</tspan> <tspan x="150.197" y="197.118">al</tspan>
        </text>
        <text fill="#273D8F" font-family="Roboto-Medium, Roboto" font-size="11" font-weight="400" transform="translate(0 -1)">
            <tspan x="25.23" y="229.008">Titular de conexión:</tspan>
        </text>
        <path fill="#BBD4B0" d="M426.396 241.766h88.887v-28.073h-88.887z"/>
        <text fill="#273D8F" font-family="Roboto-Medium, Roboto" font-size="9" font-weight="400" transform="translate(0 -1)">
            <tspan x="429.729" y="223.351">Mes factu</tspan> <tspan x="470.088" y="223.351" letter-spacing="-.132">r</tspan> <tspan x="472.988" y="223.351">ado</tspan>
        </text>
        <path fill="#BBD4B0" d="M313.396 278.266h202.199v-28.073H313.396z"/>
        <text fill="#273D8F" font-family="Roboto-Medium, Roboto" font-size="9" font-weight="400" letter-spacing="-.056" transform="translate(0 -1)">
            <tspan x="316.729" y="257.851">P</tspan> <tspan x="322.369" y="257.851">eriodo de consumo</tspan>
        </text>
        <path fill="#BBD4B0" d="M21.896 276.766h285.19v-28.073H21.896z"/>
        <text fill="#273D8F" font-family="Roboto-Medium, Roboto" font-size="11" font-weight="400" transform="translate(0 -1)">
            <tspan x="25.23" y="262.508">Di</tspan> <tspan x="35.225" y="262.508" letter-spacing="-.099">r</tspan> <tspan x="38.891" y="262.508">ección de Suminist</tspan> <tspan x="132.483" y="262.508" letter-spacing="-.184">r</tspan> <tspan x="135.973" y="262.508">o:</tspan>
        </text>
        <path fill="#273D8F" d="M313.896 206.314h201.808v-23.157H313.896z"/>
        <text fill="#FFF" font-family="Roboto-Medium, Roboto" font-size="15" font-weight="400" transform="translate(0 -1)">
            <tspan x="319.229" y="197.118">Información de pago</tspan>
        </text>
        <path fill="#FFF" d="M103.73 246.088h205.499V205.93H103.73z"/>
        <text fill="#1E1210" font-family="Roboto-Bold, Roboto" font-size="18" font-weight="bold" transform="translate(0 -1)">
            <tspan x="118.313" y="222.672">Re</tspan> <tspan x="139.529" y="222.672" letter-spacing="-.209">f</tspan> <tspan x="145.561" y="222.672">e</tspan> <tspan x="155.29" y="222.672" letter-spacing="-.18">r</tspan> <tspan x="161.509" y="222.672">e</tspan> <tspan x="171.238" y="222.672" letter-spacing="-.009">n</tspan> <tspan x="181.31" y="222.672">cia de cob</tspan> <tspan x="263.655" y="222.672" letter-spacing="-.29">r</tspan> <tspan x="269.614" y="222.672">o</tspan>
        </text>
        <path fill="#00A1F9" d="M297.12 237.313l-8.31-8.149v6.257H115.73v3.784h173.08v6.256z"/>
        <path fill="#FFF" d="M421.715 228.81c0 24.015-26.182 43.48-58.478 43.48-32.295 0-58.477-19.466-58.477-43.48 0-24.015 26.182-43.481 58.477-43.481 32.296 0 58.478 19.466 58.478 43.48"/>
        <path stroke="#00A1F9" stroke-width="5" d="M421.715 228.81c0 24.015-26.182 43.48-58.478 43.48-32.295 0-58.477-19.466-58.477-43.48 0-24.015 26.182-43.481 58.477-43.481 32.296 0 58.478 19.466 58.478 43.48z"/>
        <path fill="#BBD4B0" d="M307.115 229.31c0 4.524.98 8.876 2.772 12.956H416.59c1.79-4.08 2.77-8.432 2.77-12.956 0-5.334-1.36-10.43-3.812-15.117h-104.62c-2.453 4.687-3.813 9.782-3.813 15.116"/>
        <text fill="#273D8F" font-family="Roboto-Medium, Roboto" font-size="9" font-weight="400" transform="translate(0 -1)">
            <tspan x="317.229" y="223.351">Re</tspan> <tspan x="327.675" y="223.351" letter-spacing="-.104">f</tspan> <tspan x="330.655" y="223.351">e</tspan> <tspan x="335.485" y="223.351" letter-spacing="-.091">r</tspan> <tspan x="338.475" y="223.351">encia de cob</tspan> <tspan x="389.482" y="223.351" letter-spacing="-.148">r</tspan> <tspan x="392.339" y="223.351">o:</tspan>
        </text>
        <text fill="#131313" font-family="Roboto-Medium, Roboto" font-size="14" font-weight="400" transform="translate(0 -1)">
            <tspan x="316.229" y="238.241">12345671234</tspan>
        </text>
    </g>
</svg>
