<svg xmlns="http://www.w3.org/2000/svg" width="540" height="288" viewBox="0 0 540 288">
    <g fill="none" fill-rule="evenodd">
        <path fill="#FFF" d="M0 287.864h539.973V0H0z"/>
        <path fill="#ECC000" d="M511.084 101.265h-149.21l-10.763-26.249 170.737-.187z"/>
        <g fill="#273D8F">
            <path d="M191.466 60.477c-11.501 7.842-24.31 13.441-38.31 14.508-6.743.5-12.885.071-19.505-1.304-10.372-2.07-20.57-4.779-30.865-7.172-7.505-1.623-15.023-3.249-22.66-4.13-7.63-.997-14.752-1.274-22.386-.055-9.601 1.413-19.59 4.675-28.203 9.183v6.847c9.983-5.477 20.65-9.907 31.844-12.17 7.993-1.694 14.176-1.559 22.224-.762 7.093.713 14.15 2.166 21.083 3.804 14.473 3.61 28.473 7.85 43.47 8.748 15.35.96 30.405-1.506 43.254-10.433l.054-7.064"/>
            <path d="M198.856 67.433c-11.328 7.824-24.468 13.49-38.309 14.508-6.527.52-13.099.013-19.506-1.304-10.345-2.062-20.532-4.817-30.811-7.173-7.613-1.641-14.889-3.268-22.659-4.13-7.692-1.001-14.744-1.266-22.441-.054-9.804 1.458-19.317 4.655-28.148 9.129v6.9c9.662-5.39 20.966-9.987 31.789-12.171 7.959-1.665 14.256-1.601 22.277-.76 7.117.712 14.127 2.184 21.084 3.803 14.465 3.653 28.48 7.827 43.471 8.749 15.246.959 30.471-1.502 43.199-10.433l.054-7.064"/>
            <path d="M207.17 74.388c-11.575 7.867-24.233 13.423-38.309 14.508-6.528.52-13.099.014-19.508-1.304-10.36-2.07-20.566-4.817-30.863-7.173-7.475-1.68-14.987-3.243-22.605-4.13-7.704-.995-14.733-1.271-22.441-.054-9.718 1.394-19.432 4.724-28.203 9.129l.055 6.9c9.651-5.407 20.965-10.001 31.789-12.17 7.733-1.688 14.471-1.577 22.277-.761 7.199.73 14.056 2.154 21.083 3.804 14.582 3.703 28.35 7.796 43.471 8.748 15.214.975 30.493-1.547 43.2-10.433l.054-7.064M45.405 48.414h5.868c-.03 1.141.598 2.338 1.794 2.608.76.303 1.595.237 2.39.217.895-.169.878-.135 1.685-.597 3.27-3.81-3.695-4.583-5.978-5.435-2.153-.642-4.535-1.835-5.162-4.183-.624-3.007.352-5.25 2.989-6.847 4.365-2.6 14.266-2.08 14.019 4.782h-5.488c-.2-3.045-4.44-3.134-5.76-1.358-.234.322-.283.745-.272 1.141-.05.47.352.782.653 1.087 1.023.656 2.293 1.068 3.478 1.304 1.732.41 3.009.764 4.672 1.413 2.299 1.094 3.535 2.443 3.696 5.054.114 2.54-1.205 4.876-3.37 6.193-2.744 1.954-7.21 2.023-10.323 1.087-3.093-.967-4.85-3.2-4.891-6.466zm26.897-7.009h7.445c-.138-2.459-.802-4.682-3.695-4.674-2.551-.062-3.704 2.456-3.75 4.674zm13.15 6.738c-.31 7.444-10.085 8.948-15.268 5.65-2.107-1.598-3.09-3.335-3.75-5.868-.59-2.928-.53-6.737.706-9.51 2.088-5.102 7.497-6.449 12.498-5.27 5.487 1.668 6.777 7.121 6.467 12.281l-13.966.054c.018 2.7.703 5.732 3.967 5.76 2.19-.072 3.249-.997 3.804-3.097h5.542zm9.455-4.02c-.014 2.896.769 7.007 4.402 7.062 3.589-.035 4.71-4.107 4.618-7.063.093-2.93-1.04-7.059-4.618-7.064-3.598.016-4.416 4.216-4.402 7.064zm9.184 10.812l-.164-3.097c-2.167 3.235-5.92 4.265-9.51 2.988-4.187-1.587-6.04-6.493-5.867-10.704-.08-2.58.483-5.177 1.793-7.39.602-.735.93-1.419 1.738-2.01.722-.612 1.382-.973 2.228-1.359 3.364-1.179 7.565-.319 9.509 2.88v-12.39h6.25v28.202l.054.326v.597c.006.541.073 1.43.163 1.957h-6.194zm22.549-10.379c-2.234-.128-5.475.126-6.63 2.391-.228.518-.293.58-.27 1.196l-.055.217v.163l.055.162v.272l.053.164.055.107c.175.781.056.173.326.762.373.364.22.343.707.706.315.154.363.22.76.381.356.075.716.18 1.087.162.927-.027 1.903-.289 2.553-.977.774-.709 1.064-1.728 1.306-2.718.073-.835.147-1.164.109-2.064v-.816l-.056-.108zm.979 10.38c-.132-.959-.258-1.957-.272-2.935-.801 1.013-1.735 1.984-2.88 2.608-1.295.742-2.24.916-3.695 1.033-3.815.108-6.83-2.269-7.173-6.14-.183-2.333.5-4.697 2.445-6.142 1.188-1.015 2.702-1.486 4.185-1.9 1.478-.323 3.536-.459 5.052-.49.216.007 1.288.035 1.415.11.176-1.769.069-4.24-2.066-4.729-2.485-.307-3.604.458-3.912 2.988h-6.25c.034-3.132 1.717-5.343 4.783-6.086 1.698-.502 3.84-.649 5.596-.489.714-.028 2.308.288 2.989.544.419.064.923.435 1.25.49 1.629.874 2.937 2.253 3.315 4.13.587 3.75.132 7.59.326 11.356.047 1.883.2 3.765.325 5.651h-5.433zm24.67-10.869c.072-2.81-.813-7.14-4.403-7.064-3.597-.08-4.682 4.182-4.618 7.064-.062 2.923 1.033 7.073 4.618 7.064 3.584.045 4.468-4.244 4.403-7.064zm-9.184-10.814l.218 3.098c2.11-3.202 5.649-4.208 9.237-3.098 4.437 1.508 6.189 6.545 6.14 10.87.002 4.38-1.587 9.178-6.031 10.757-3.6 1.026-7.096.28-9.293-2.934V63.14h-6.247V35.753l-.056-.272a13.78 13.78 0 0 0-.163-2.228h6.195zm31.19 11.303c-1.494-.117-3.044.02-4.455.544-.715.205-1.983 1.097-2.173 1.847-.355.49-.431 1.727-.22 2.281l.057.164.053.11.055.162.108.217.109.11c.219.363.417.473.706.705 1.199.876 3.344.652 4.348-.434 1.452-1.322 1.528-3.887 1.413-5.706zm.924 10.38a101.2 101.2 0 0 1-.272-2.935c-.755 1.063-1.73 1.926-2.825 2.608-1.446.76-2.148.904-3.75 1.033-3.695.17-6.915-2.364-7.117-6.14-.293-2.282.528-4.736 2.39-6.142 1.199-1 2.698-1.483 4.184-1.9 1.839-.334 4.656-.66 6.52-.38.045-1.85.105-4.208-2.118-4.729-2.42-.303-3.654.475-3.858 2.988h-6.25c-.055-3.129 1.752-5.368 4.782-6.086 2.899-.82 7.042-.817 9.78.544 1.519.71 3.129 2.46 3.316 4.13.679 3.727.212 7.584.326 11.357.116 1.873.18 3.78.327 5.651h-5.435zm9.563 0h6.249V23.852h-6.25v31.082z"/>
        </g>
        <text fill="#273D8F" font-family="Roboto-Regular, Roboto" font-size="9">
            <tspan x="27.385" y="118.135">Se</tspan> <tspan x="37.492" y="118.135" letter-spacing=".083">r</tspan> <tspan x="40.7" y="118.135">vicio de Agua </tspan> <tspan x="96.576" y="118.135" letter-spacing="-.063">P</tspan> <tspan x="102.134" y="118.135">otable y Alcantarillado de Lima </tspan>
        </text>
        <text fill="#273D8F" font-family="Roboto-Regular, Roboto" font-size="9" letter-spacing="-.217">
            <tspan x="54.493" y="128.935">A</tspan> <tspan x="59.927" y="128.935" letter-spacing="-.466">v</tspan> <tspan x="63.35" y="128.935">. Rami</tspan> <tspan x="88.456" y="128.935" letter-spacing="-.089">r</tspan> <tspan x="91.325" y="128.935">o Priale &amp; 22 A El Agustino</tspan>
        </text>
        <text fill="#273D8F" font-family="Roboto-Regular, Roboto" font-size="9">
            <tspan x="88.702" y="139.735">RUC 20100152356</tspan>
        </text>
        <text fill="#273D8F" font-family="Roboto-Regular, Roboto" font-size="9">
            <tspan x="83.275" y="150.535">ww</tspan> <tspan x="96.801" y="150.535" letter-spacing="-.533">w</tspan> <tspan x="102.487" y="150.535">.sedapal.com.pe</tspan>
        </text>
        <text fill="#273D8F" font-family="Roboto-Bold, Roboto" font-size="15" font-weight="bold" letter-spacing="-.08">
            <tspan x="383.095" y="41.937">P</tspan> <tspan x="392.61" y="41.937">a</tspan> <tspan x="400.652" y="41.937" letter-spacing="-.222">r</tspan> <tspan x="405.681" y="41.937">a Consultas</tspan>
        </text>
        <text fill="#273D8F" font-family="Roboto-Bold, Roboto" font-size="15" font-weight="bold">
            <tspan x="387.445" y="59.937">Suminist</tspan> <tspan x="447.181" y="59.937" letter-spacing="-.276">r</tspan> <tspan x="452.113" y="59.937">o N째</tspan>
        </text>
        <text fill="#1E1210" font-family="Roboto-Bold, Roboto" font-size="20" font-weight="bold">
            <tspan x="385.454" y="92.912">1234567-1</tspan>
        </text>
        <path fill="#273D8F" d="M21.896 206.315h285.19v-23.157H21.896z"/>
        <path fill="#BBD4B0" d="M21.896 240.265h285.19v-28.073H21.896z"/>
        <text fill="#FFF" font-family="Roboto-Medium, Roboto" font-size="15" font-weight="400">
            <tspan x="27.23" y="196.118">Informaci처n gene</tspan> <tspan x="145.347" y="196.118" letter-spacing="-.204">r</tspan> <tspan x="150.197" y="196.118">al</tspan>
        </text>
        <text fill="#273D8F" font-family="Roboto-Medium, Roboto" font-size="11" font-weight="400">
            <tspan x="25.23" y="228.008">Titular de conexi처n:</tspan>
        </text>
        <path fill="#BBD4B0" d="M313.896 241.765h107.539v-28.073H313.896z"/>
        <text fill="#273D8F" font-family="Roboto-Medium, Roboto" font-size="9" font-weight="400">
            <tspan x="317.229" y="222.351">Re</tspan> <tspan x="327.675" y="222.351" letter-spacing="-.104">f</tspan> <tspan x="330.655" y="222.351">e</tspan> <tspan x="335.485" y="222.351" letter-spacing="-.091">r</tspan> <tspan x="338.475" y="222.351">encia de cob</tspan> <tspan x="389.482" y="222.351" letter-spacing="-.148">r</tspan> <tspan x="392.339" y="222.351">o:</tspan>
        </text>
        <text fill="#131313" font-family="Roboto-Medium, Roboto" font-size="14" font-weight="400">
            <tspan x="316.229" y="237.241">12345671234</tspan>
        </text>
        <path fill="#BBD4B0" d="M426.396 241.765h88.887v-28.073h-88.887z"/>
        <text fill="#273D8F" font-family="Roboto-Medium, Roboto" font-size="9" font-weight="400">
            <tspan x="429.729" y="222.351">Mes factu</tspan> <tspan x="470.088" y="222.351" letter-spacing="-.132">r</tspan> <tspan x="472.988" y="222.351">ado</tspan>
        </text>
        <path fill="#BBD4B0" d="M313.396 278.265h202.199v-28.073H313.396z"/>
        <text fill="#273D8F" font-family="Roboto-Medium, Roboto" font-size="9" font-weight="400" letter-spacing="-.056">
            <tspan x="316.729" y="258.851">P</tspan> <tspan x="322.369" y="258.851">eriodo de consumo</tspan>
        </text>
        <path fill="#BBD4B0" d="M21.896 276.765h285.19v-28.073H21.896z"/>
        <path fill="#273D8F" d="M313.896 206.315h201.808v-23.157H313.896z"/>
        <text fill="#FFF" font-family="Roboto-Medium, Roboto" font-size="15" font-weight="400">
            <tspan x="319.229" y="196.118">Informaci처n de pago</tspan>
        </text>
        <text fill="#1E1210" font-family="Roboto-Bold, Roboto" font-size="22" font-weight="bold">
            <tspan x="230.42" y="54.984">Suminist</tspan> <tspan x="318.034" y="54.984" letter-spacing="-.405">r</tspan> <tspan x="325.267" y="54.984">o</tspan>
        </text>
        <g>
            <path fill="#00A1F9" d="M347.99 69.313l-8.31-8.149v6.257H230.434v3.784H339.68v6.257z"/>
            <path stroke="#00A1F9" stroke-width="5" d="M521.628 69.42c0 34.95-38.104 63.284-85.106 63.284-47.004 0-85.108-28.333-85.108-63.283s38.104-63.283 85.108-63.283c47.002 0 85.106 28.333 85.106 63.283z"/>
        </g>
    </g>
</svg>
